<svg xmlns="http://www.w3.org/2000/svg" viewBox="0 0 500 500" id="young-boy-with-cap"><defs><clipPath id="a"><circle cx="250" cy="250" r="204" fill="none"></circle></clipPath></defs><g style="isolation:isolate"><g clip-path="url(#a)" data-name="Layer 1"><circle cx="250" cy="250" r="204" fill="#d0c69a"></circle><path fill="#fcbf22" d="M341.74 286.69c23.77 22.4 85.24 38.79 113.1 79.77s32.78 72.12 38.52 104.9c5.23 29.87 9.84 63.11 9.84 63.11l-11.27 1-74 59.63s-26.22 177-30.32 200.79c-79.8 10.85-156.83 17.66-217.19 0 0 0 4.1-54.09 10.66-104.9s9.83-66.39 9.83-66.39L156.52 655 71.28 551.68s32-54.91 50-86.87 60.65-83.6 100-104.09 120.46-74.03 120.46-74.03Z"></path><path fill="none" stroke="#010101" stroke-linecap="round" stroke-linejoin="round" stroke-width="1.36" d="M324.12 412.76c-1.23 20.49 13.93 58.19 22.54 82.37s17.62 72.12 17.62 72.12M190.94 624.62c4.92-49.17-.82-117.2 3.28-145.06"></path><path fill="none" stroke="#010101" stroke-linecap="round" stroke-linejoin="round" stroke-width="1.36" d="M169.63 479.56c.82 22.13 22.13 62.28 22.13 62.28M352.4 295.15c-4.1 14.35-38.93 51.23-52.46 65.16s-45.48 41.39-45.48 41.39"></path><path fill="#253f4c" d="M172.09 164c-3.55-2.73-9.29-5.19-4.1-16.39s18.31-32.23 48.08-45.89 60.38-15 71.85-15.3 26.23 7.37 30.33 19.12 5.05 35.31 8.47 48.08c2.09 7.85 8.74 29.78 4.91 42.07s-11.74 28.42-19.12 29-83.87-32.51-83.87-32.51Z"></path><path d="M200.42 130.5c.39.25-.39-.29-1.44 1.36-.9 1.41-.32 1.25-1 2.32-1.81 2.84-.24 2.57-1.06 3.09a190.65 190.65 0 0 0-11.12 19.23c-1.4 2.86-.71 2.2.79 3.48.09.08-.32.11-.43.12l.41.23c2.1-2.63 9-13.44 7.78-13.86-.36-.12.38-.85.39-.24 0 .24.37-.24.9-1.15a62.78 62.78 0 0 1 4-6.28c1.57-3.08.66-3.7 3.05-6.53 1.78-2.1 1.74-1.58-1.77-2.76-.37.56-.57.94-.5.99Zm-8.59 18.78c.15 0 .34.32.3.38.16.67-.54-.3-.3-.38ZM186.74 129.64c-.21-.39-1.34.72-1.23 1.19.35 1.4-6.19 12.15-12.1 21.9l2.84 1.64c0-.06 7.66-12.81 7.64-12.87-.28-.59-.19.77 1.66-2.59 4.76-8.65.46-2.93 6.51-12.26l-3.13-1c-2.23 3.7-2.23 4.11-2.19 3.99ZM186.74 129.64c0 .08 0 0 0 0ZM184.18 158.56c-.42.25-.37.18 0 .39.24-.45.94-.95 0-.39Z"></path><path d="M185 159c.05.08 0 .07 0-.1-.46-.24-.28-.13-.53.23.26.14.32-.49.53-.13ZM185.07 159.07c0 .06 0 .06 0 0Z"></path><path d="M186.24 160.09c.24 0 .41-.06.35-.11-.59-.5-1.66-1.48-2-.77 1.75.99 1.54.89 1.65.88ZM203.35 170c-.18-.44-.34-.38-.39-.18.49.26.41.23.39.18Z"></path><path d="M219 136.3c-.22.76.39.2-.1 1.1s-.74-.1-.8.16c-.57 2.25-1.67 3.08-1.7 3.89s-1 .7-1 1.57-.77 1.1-1.15 2.16c-.56 1.55-1.41 2-1 2.28.22.13.19.16-.14.18s-.43.19-.5 1c-.11 1.4-.5 1.15-.32.83s-.25-.23-.58.18-.29.84.28.75c.86-.12 0-.1-1 1.08-.48.57-.54.73-.24.59s.36-.09.27.06c-.27.47-.28-.33-1.5 1.82 0 0-5.16 7.43-4.09 6.89.54-.28.15.32-.15.33s-1.88 2.56-1.62 2.71.12.2 0 .28c-.39.21.27.28.08.61s-.35-1-1.1.58-.35 2.22-.83 2.24 0 .79-.41 1a.14.14 0 0 0-.1.1c1.46-.56 1.13-.81.84-.52-.52.53-.55-.43.14-.49s.93 1.4.93.74.58 0 .2.5c-.19.24-.16.35.09.35.48 0-.17-.1-.06.78 1.69-2.29.22-1.78 1-2.09.59-.22 0-.44.57-1.18.28-.38.27-.54 0-.58-.51-.07 0-.41.47-.13.68.39.64-2.23 1.14-1.94s2.79-4.24 2.66-4.92c-.05-.29 0-.51 0-.47s.16-.15.16-.43c0-1 3.31-3.2 2.41-3.17-.62 0 1-.72.48-1-.21-.11-.17-.16.13-.18s.35-.12.25-.31c-.23-.41.82-1.13.52-1.3s.18-1 .44-.91.37-1.08.9-1.73c.2-.26.25-.45.1-.45s1.39-2.74 2-3.3-.06-.35.05-1c0-.32.13-.34.32-.1s.25.2.27-.25c0-.91.27.21.89-1.32s1.54-1.62 1.27-1.77.5-1 .66-1.87c.07-.41.19-.53.41-.41s.37 0 .61-.81c.6-1.9 2.09-.92-1.86-2.39 0 .29-.1 0-.17-.06s-.06.15-.12.32Zm-11.36 25.83c-.48-.27.22-.38.19-.32.41-.01.17.49-.17.32ZM229.78 140c-.36-.14-.24-.18-.47.28.29.44.15-.03.47-.28ZM228.06 143.19l.26-.53c-.25-.01-.48.34-.26.53Z"></path><path d="M228.94 141c-1.14 2.07-.23 1.41 0 .09ZM230.72 140.43c0-.05-.49-.25-.19.32.18.35.47-.15.19-.32ZM231.92 142.2c.94-1.28.73-1.08.31-1.24a4 4 0 0 1-.31 1.24ZM238.54 145.73c-.1.43-.29 0-.66.54-.2.32-.12 1.43-2.71 4.87-1.47 1.94-.45 1.35-1 1.91-2.12 2.34-1.37 3-1.64 2.5s-.7.31-.58.86c.08.32 0 .38-.18.24-.47-.3 0 .86-.32.69s.17 1.1-.26.66-.87.34-1.1 1.26c-.34 1.41-.95.39-1.13 1.75-.05.38-.22.71-.37.72a13 13 0 0 0-2.52 3.94c0 .54-1.44 1.47-1.12 1.87s-1.11.62-.62.63-3.26 5-3 5.47c.1.18 0 .27-.26.28s-.33.06 0 .25c.51.32-.11.56-.24.3s-.76.6-.28.71.16.54-.13.35-.68.46-.43.62-1.4 2.67-1.08 2.86c.31-.42.53-.61.59-.48s.15.2.12-.15c-.08-.95 1.59-1.86 1.92-1.86.15 0 .36.19.55.43.05-.2.1-.28.22-.16.36.35.74-.48 2-2.12s.39-1.1.75-1.67.57.19.62-.65.33-.23.25-.87.28-.46 1.18-1.37 0-1.81.52-1.15.26-.17.68-.88c.3-.52 0-1.44.27-.92s1.77-2.24 1.44-2.25 1.77-1.15 1-1.61c-.18-.12-.12-.19.19-.21s.41-.1.27-.3c-.26-.36 0-.77.19-.42.36.73.49-1.47.9-1.47.67 0 .85-2.38 2-3 .71-.38 1.06-2.41 1.34-2.24s1.09-.92.39-.64c-.35.13 4.89-6 3.32-5.25-.55.27.19-.34.31-1.12s-.24 1.11 2.62-3.6c-2.03-.8-3.41-1.81-4.01.68Zm-4.38 8.76c-.58-.37.1-.35.07-.3.36.01.34.56-.07.3Zm2.66-4.93c-.23-.44.27-.43.24-.38.33.01-.06.68-.24.38Z"></path><path d="M221.73 176.76s-.49-.26-.2.32c.17.35.47-.14.2-.32ZM239.34 143.84c0-.07.24 0-.19-.14 0 .07.05.14.19.14ZM247.56 151.12c-.12 0-.15-.12-.06-.27.23-.39 1.11.45.77.71s.4.65.35.43 1-.33.43-.67c-.75-.46.29-.95.76.43.28-.51.52-.9.6-.75s.63-.8.58-1.29c0-.31 0-.35.13-.13s.34-.09.7-.63l-3.3-1.39a21.9 21.9 0 0 0-1.68 4.17c.21-.18 1.45-.61.72-.61ZM259.32 153.39c-.9 1.44-.13 1.66-.53 1.45s-.66.3-.25.31c.17 0 .06.12-.23.27-1 .51.12 1.4-.72 1.6-.24.06-.33.15-.21.22.36.22-3.47 5.71-3.17 6.33 0 .08-4.32 5.65-3.21 5.54.42 0 .43 0 0 .13-.67.24-.32.8-.55.39-.55-1-1.92 3.06-2.23 2.86-.16-.1-.2 0-.14.27.13.55-.26 1.18-.67 1.08s-6.31 11-6.34 10.94c-.43-.81-3.1 4.92-3.15 5.2.23.14 0-.14.77-.6s.77.91 1.66.62a.78.78 0 0 1 .83.1c.85-1.27 1.17-1.34 1.11-2s.09-1 .29-.64c.1.22.15.2.15 0s3.08-2.35 3.09-4.78c0-.94.23-1.7.25-.84 0 .56 1.68-2.52.91-2.51q-.3 0 0-.15c.47-.23.44.52.79-.14.12-.25.16-.49.08-.54s.19-.41.62-.83c1.3-1.24 1-2.45 1.44-2.46s.72-1.32 1.38-1.68c.32-.18.4-.31.24-.41s-.1-.22.18-.37c.63-.34.71-1.73 1-1.54s.79-2.18 1.59-2.29.21-1.08 1.26-1.89c.87-.67.1-.68.73-1.32 1.65-1.65.61-1.74 1.88-3.49s.76-2.54 1.48-2.71c1.18-.27.66-2.45 1.13-2.16s.65-2.31 1.44-2.76a3.74 3.74 0 0 0 .65-.69c-3.31-1.58-2.87-1.63-3.55-.51ZM269.51 159c-.18-.35-.47.15-.21.31s-.94 1.36-.86 2-.28-.06-.62.62.19.29-.43 1.28a2.49 2.49 0 0 0-.21.44c.45-.18.93-.19.23.09-1 .39.49.17.69-.17s.82.58 1 .23.81.28.3.72c-.68.58.63.83-.32 1.18-.53.2 0 0-.17.49.59-.43 1.08-1 .7-1s-.15-.48.13-.31.15-1.06.81-1.23c.3-.07.32-.14.09-.28s-.25-.19.13-.2c.88 0 0-1.13.85-1.4.58-.2.09-.91.08-.37 0 .81-.42-.89.42-.74.28 0 .69-.62 1.3-1.79-1-.49-2-1-3-1.48-.36.97-.78 1.89-.91 1.61ZM280 165c-1.15 2.12-.36 1.48-.63 1.93-.08.14-.2.12-.27 0s-.41 0-.32.34c.13.54-3.94 6.22-3.64 6.41s-.4-.29-1.45 1.36c-.9 1.41-.32 1.25-1 2.32-1.8 2.84-.24 2.57-1.06 3.09-.52.33-12 19.23-11.87 21.65a9.54 9.54 0 0 1 1.55 1.06c.05 0-.12.1-.36.11s-.15 0 .34.24c2.09-2.63 9-13.44 7.77-13.86-.36-.12.39-.85.39-.24 0 .24.38-.24.9-1.15a62.78 62.78 0 0 1 4-6.28c1.57-3.08.66-3.7 3.06-6.53 3.22-3.8 3.71-7.37 3.94-6.91s1.13-1.3 1.07-2.06c0-.37-.11-.46-.23-.27-.22.37-.4.07.11-.35 1.07-.87-.73 2.86 1.54-1.39-3.56-1.98-2.76-1.47-3.84.53Zm-13.45 27.43c.14 0 .33.32.3.37.15.66-.56-.31-.31-.39ZM208.94 138c.29.17-1.06.93-.58.93s-.06.74-.21.46.06.19-2.35 3.24c-2.83 3.59-1.26 2.92-2 3.18s-1.77 1.87-1.6 2.19a.25.25 0 0 1-.16.4c-.77.3-2.26 3.71-3 4-.27.1-.29.18-.07.31s.19.17 0 .19c-.47 0-1.93 3.17-2.7 3.9-.34.31-.41.47-.21.47.48 0-1.63 1.7-1.41 2.9.15.81-.11-.71-1.72 2.53-.67 1.36-1.52.45 1.89 2.41 0-.19 0-.27.07-.14s.32 0 2.19-3.56c.61-1.16.11-1.62.52-1.39s0-.22.86-1 .12-.34.23-1 .23-.74.26-.24c0 .27.09.34.17.2.28-.49 1.07-.81.45-.82s.29.12.65-1.08c.29-1 2.42-3.45 2-3.68s.21.44 1.37-1.8.92-1 1.26-1.55c.13-.22 0-.34-.27-.4s-.45-.09.13-.23c1.47-.37 7.39-10.82 7.48-12.11-.8.36.05-.64 0 0 .8-.36-.08-.69.53-.93a3.25 3.25 0 0 0 .93-1.32c-.41-.15-.41.5-1.1.1-.34-.2.11-.32.08-.47l-1.17-.42c-.87 1.3-2.85 4.52-2.52 4.73Zm-3.46 5.4s.35.36.32.41c.71 1.25-.55-.04-.32-.43Z"></path><path d="M212.19 136.22c.05-.64-.8.36 0 0ZM212.55 134.07a.62.62 0 0 0 .9-.17l-.82-.3c.03.15-.42.27-.08.47ZM201.36 168.75c-.16.06-.14 0 0 .13a.2.2 0 0 1 0-.13Z"></path><path d="M203 169.8c.11-.45.34.19.54.31-.11-.87.53-.78.06-.78-.25 0-.28-.11-.09-.35.38-.46-.19-1.08-.2-.5s-.15-.81-.93-.74-.66 1-.14.49c.29-.29.62 0-.84.52-.09.14-.11.08 1.6 1.05ZM228.94 141c.12-.22.24-.46.37-.72-.22-.34-.31.44-.37.72ZM212.52 175c.66-1 1.13-1.31 1.07-1.9 0-.34 0-.37.14-.12.41.77 2.17-3.15 1.92-3.15-.46 0 .56-.37.68-.9s1.15-.22.6-.55c-.24-.15-.2-.21.22-.37s.45-.18.12-.19c-.85 0 1.07-.13 1.57-3 .21-1.24.26.24 1.67-2.56 1.21-2.4 1.54-2.65 1.58-3.38 0-.43.06-.5.18-.27s.32-.06.77-1 3.2-4.23 2.62-4.22c-.15 0-.07-.17.18-.4s.36-.4 0-.39c-.74 0 .58-.06.44-.77-.08-.36-.06-.39.08-.13s.2.18.25-.12c.1-.66-1.11-.57-.13-.68s3.4-4.51 3.15-4.66.59.88 2.24-4.05c-2.62 3.56-3.42 2.15-3.32 1.62s-.41-.51-.54-.63c-2.71 5.58-11.1 18.82-9.81 18.82.07 0-5.19 7.14-4.6 7.14.17 0 .19 0 0 .13-1.79.89-.82 2.7-1.26 1.84-.27-.53-.5.54-1.63 1.83-.92 1.05-.06.83-.29 1.22 2.21 1.22 1.91 1.16 2.1.84Zm10.25-21.55c.26.16.22.33-.2.32-.64.02.35-.55.2-.3Zm-2 7.36c.42.26-.07.52-.24.2-.32-.55.24-.23.21-.18ZM229 141.92c-.5.25-.23.71-.56.51-.06 0 0-.11-.16.23.78.05 1.14-.93.72-.74Z"></path><path d="M229.58 140.29c-.07.33-.19.11-.27 0a11.87 11.87 0 0 0-.83 2.15c.33.2.06-.26.56-.51s-.27 1-.6.78c-.14-.09-.11-.06-.38.49.13.12.61.22.54.63-.35 1.93 3.44-.22 3.63-2.86-2.45-.97-2.55-1.12-2.65-.68Zm1.14.14c.29.17 0 .67-.19.32-.3-.57.23-.37.19-.32ZM220.22 179.76l1.21.7c1.29-2.68 1.46-2.54.67-3.51-.6 2.57-1.03.52-1.88 2.81Zm1.8-2.06c.17-.27.33-.33.29-.27.61.38-.73.97-.31.27Z"></path><path d="M221 178.58c1.13-.32 1.44-2.05.58-2.06-.33 0-2 .91-1.92 1.86 0 .35 0 .38-.12.15s-.28.06-.59.48c2.53 1.48.53-.01 2.05-.43Zm.76-1.82c.28.18 0 .67-.2.32-.32-.58.2-.37.17-.32ZM230.31 185.25c0-.36.07-.44.17-.25.32.62 5.88-10.4 5.81-10.54s-.15-.17-.15 0-.22.16-.48 0c-1.09-.56.76.33 1.68-1.19.8-1.33 0-.68 0-1.23 0-.15.12-.19.25-.07s.41-.06.84-.79 3.41-3.61 3.07-4 .79-.29.89-1.07c.2-1.54.93-.44.78-1.52 0-.35 0-.44.1-.23.25.46.86-.59.71-1.21-.23-.93.16.54 2-2.81 5.79-10.78 2.76-6.64 3.57-8 .26-.43.68.55.29-.59-.46.82-1.05 2-1.32 1.61s-.26-.17-.31.11-.14.32-.22.15c-.27-.52-.19.87-.79.5s-.63-1.18-.33-2.39c-2.11 1.87-3.52 9.74-10.31 16.87-.46.48-.52.63-.23.62s.27 0 0 .16c-1.47.74-.87 2.12-1.21 1.91s-2.42 3.32-2.24 3.69.09.27-.11.16c-.36-.22-.74.5-.43.5a13.77 13.77 0 0 0-1.45 3.6 24.59 24.59 0 0 1-2.79 5.07c2.47 1.43 2.18 1.37 2.21.94ZM247 154.17c.13.08.17.69-.13.51s.2-.68.13-.51Z"></path><path d="M247.17 154.12c.6.37.52-1 .79-.5.08.17.17.12.22-.15s.15-.32.31-.11.86-.79 1.32-1.61c-.47-1.38-1.51-.89-.76-.43.56.34-.51.37-.43.67s-.73-.15-.35-.43-.54-1.1-.77-.71c-.09.15-.06.27.06.27.42 0 .15.27-.39.41s-.76 2.13 0 2.59ZM241 191.62c.5.64.79-2.52-.19-.92-.81 1.3-.24.36.19.92Z"></path><path d="M241.19 190.1a.78.78 0 0 0-.83-.1c-1 .3-1.16-1.87-2.35 0 2.99 1.74 2.09 1.72 3.18.1ZM258.59 184.63c-.28-.59-.18.77 1.67-2.59 4.91-8.93.16-2.54 7.12-13.22 2.38-3.65 1.45-2.34.74-2.17-.41.1-.62.07-.53-.09s-.33-.7-.63-.53c-.11.07-.1 0 0-.11.32-.33-.55-.56-.15-.76s.12-.84.34-1.48c-1.36.54-5.77 9.18-5.74 9.09-.2-.39-1.34.72-1.22 1.19.34 1.4-6.19 12.15-12.11 21.9l2.92 1.64c0-.06 7.62-12.81 7.59-12.87ZM261.44 172.77c0 .08 0 0 0 0Z"></path><path d="M267.41 163.77c.89-.36-.2-.29-.3.14ZM266.84 165.16c-.4.2.47.43.15.76-.13.13-.14.18 0 .11.3-.17.8.25.63.53s.12.19.53.09c.66-.16 1.09-.73.82-.73s-.1-.09.17-.19c.45-.16.48-.23.23-.53a.44.44 0 0 1 .09-.65c.51-.44-.13-1-.3-.72s-.77-.65-1-.23a1.74 1.74 0 0 1-1 .39c-.16.59-.03 1.01-.32 1.17ZM259.74 202.15c.05.08 0 .07 0-.1-.45-.24-.27-.13-.53.23.22.12.29-.51.53-.13ZM258.89 201.69c-.42.25-.37.18 0 .39.23-.45.93-.95 0-.39Z"></path><path d="M259.33 202.34c1.71 1 1.5.89 1.61.88s.41-.06.36-.11c-.59-.5-1.67-1.48-1.97-.77ZM259.77 202.2c0 .06 0 .06 0 0ZM288.44 175.9c.05.47.28 0 .25-.55.37-.64-1.8 0-1.17 0s.87.17.92.55Z"></path><path d="M288 169.8c.25.83-.88 1.71-.93 2.86-.05 1-.54.78-.21 1s-.17.34.12 1.49c.85-.79 1.94-.64 1.86.46 1.34-3.29 1.65-3.34 1.12-3.34-.27 0-.23 0 .13-.17.92-.33.58-2.12 1.12-1.81.25.15 1-1.16.64-1.16s-.22-.26 0-.33l-2.9-1.53a7.57 7.57 0 0 0-.95 2.53Zm3.45-.51c.27.15.23.31-.18.31-.59 0 .36-.6.22-.31ZM298.09 172.73c-.25.14-3.25 4.58-2.68 4.58.8 0-1.5.43-1.3 1.74q.08.47-.09.18c-.1-.19-.21-.12-.3.2-.22.76.4.2-.1 1.1s-.74-.1-.8.16c-.57 2.25-1.67 3.08-1.7 3.89s-1 .7-1 1.57-.78 1.1-1.16 2.16c-.55 1.55-1.41 2-1 2.28.22.13.19.16-.13.18s-.43.19-.5 1c-.12 1.4-.51 1.15-.32.83s-.25-.23-.58.18-.3.84.27.75c.86-.12 0-.1-1 1.08-.47.57-.54.73-.24.59s.36-.09.27.06c-.27.47-.28-.33-1.5 1.82 0 0-5.16 7.43-4.09 6.89.55-.28.15.32-.15.33s-1.88 2.56-1.62 2.71.12.2 0 .28c-.39.21.27.28.08.61s-.35-1-1.1.58-.35 2.22-.83 2.24 0 .79-.41 1a.19.19 0 0 0-.1.1c1.46-.56 1.14-.82.84-.52-.52.53-.55-.43.14-.49s.93 1.4.94.74.58 0 .2.5c-.2.24-.17.35.09.35.53 0-.47.21.16.46 1.27-1.85.08-1.5.81-1.77.58-.22 0-.44.56-1.18.28-.38.28-.54 0-.58-.5-.07 0-.41.47-.13.68.39.65-2.23 1.15-1.94s2.79-4.24 2.65-4.92c-.05-.29 0-.51.05-.47s.16-.15.17-.43c0-1 3.3-3.2 2.4-3.17-.62 0 1-.72.48-1-.2-.11-.17-.16.13-.18s.36-.12.25-.31c-.23-.41.82-1.13.52-1.3s.18-1 .44-.91.38-1.08.9-1.73c.21-.26.25-.45.1-.45s1.39-2.74 2-3.31-.06-.34.05-1c.05-.32.13-.34.32-.1s.25.2.27-.25c0-.91.27.21.9-1.32s1.53-1.62 1.26-1.77.5-1 .66-1.87c.08-.41.2-.53.41-.41s.37 0 .62-.81c.42-1.36 1.71-1.89 1.18-2.2-.35-.2.26-.08.64-.5.81-.86 1-1.16.77-1.29s-.12-.18.18-.3c.55-.2 2.06-2.78 2.11-4-4.63-2.26-2.05-.92-2.74-.53Zm-15.73 32.53c-.48-.27.22-.38.19-.32.39-.01.1.49-.19.32Zm15.78-27.53c.07.26-.58.83-.27.22.18-.34.3-.27.27-.22ZM305.43 183.56c0-.05-.5-.25-.2.32.18.35.48-.15.2-.32ZM303.64 184.13c-1.14 2.07-.23 1.41 0 .09Z"></path><path d="M302.76 186.32c.1-.18.18-.36.26-.53-.25-.01-.48.32-.26.53ZM307.49 177.7c.51 0-.42.18-.68.69s-1.19.89-.76.88c.59 0-1.18 1.52-.41 1.71.33.09.31.12-.15.19s-.53.2-.46.53 0 .36-.1.1c-.27-.49-.26.3-.92 1.61.1.14.2.34.28 0s.94-.68 1.12-.32c.07.14.23.12.33 0 .44-.73-2-.4-.68-.67 2-.38 1.38 2.28 1.6 1.27s.54-.05 0 1.68c1.82-2.48.33-2.22 1-2.39s.86-.68.31-.8c-.38-.09-.38-.1.07-.16.82-.09 1.76-2.55 2.86-3.8l-3.08-1.46c-.37.4-.6.94-.33.94ZM296.27 219.81l.15.06a.36.36 0 0 0-.15-.06Z"></path><path d="M316.19 183.75c.23.6-.17-.91-1.26 1.94-.26.67-.46.75.11 1.11 1.19.75-1.17-.54-1.79 2.06-.11.43-.3 0-.66.54-.21.32-.13 1.43-2.72 4.87-1.46 1.94-.45 1.35-1 1.91 0 0-1.59 1.52-1.52 2.38 0 .34 0 .37-.12.12-.21-.42-.7.31-.57.86.07.32 0 .38-.18.24-.48-.3 0 .86-.32.69s.16 1.1-.27.66-.87.34-1.09 1.26c-.34 1.41-1 .39-1.14 1.75-.05.38-.22.71-.37.72a13 13 0 0 0-2.52 3.94c.06.54-1.43 1.47-1.11 1.87s-1.11.62-.62.63-3.27 5-3 5.47c.1.18 0 .27-.26.28s-.32.06 0 .25c.52.32-.11.56-.24.3s-.76.6-.28.71.16.53-.13.35-.59.34-.48.55c2.18.82 1.58.22 2.07.77.18.07.12-.25.31-.06.35.35.73-.48 2-2.12s.38-1.1.75-1.68.56.2.61-.64.34-.23.25-.87.29-.46 1.18-1.37 0-1.81.53-1.15.25-.17.67-.88c.31-.52 0-1.44.27-.92s1.77-2.24 1.44-2.25 1.77-1.15 1-1.61c-.19-.12-.12-.19.19-.21s.41-.1.26-.3c-.26-.36 0-.77.19-.42.37.73.5-1.47.9-1.47.67 0 .85-2.38 2-3 .72-.38 1.07-2.41 1.34-2.24s1.1-.92.39-.64c-.35.13 4.89-6 3.33-5.25-1.08.52 2-2.32 6.16-10.34l-2.92-1.32c-.93 1.43-1.51 2.18-1.38 2.51Zm-7.33 13.87c-.58-.37.1-.35.07-.3.37.01.34.56-.07.3Zm2.66-4.93c-.23-.44.28-.43.24-.38.33.01-.09.69-.24.38Zm5.3-9.51c.06 0 .35 1.62 0 .62-.31-.8.03-.67 0-.62Z"></path><path d="M314 187c0-.06.68 0 .19-.33-.25-.2-.54.33-.19.33ZM322.27 194.25c-.13 0-.16-.12-.07-.27.23-.39 1.12.45.77.71s.4.65.35.43 1-.33.44-.67c-.76-.46.28-.95.75.43.29-.51.52-.9.6-.75s.63-.8.59-1.29c-.11-1.19-.81 3 3.82-6.3l-3.24-1.39c-7.42 12.49-3.28 9.1-4.01 9.1Zm2.5-4.49c.6.36-.15.49-.34.12-.3-.6.37-.18.34-.12ZM286.9 179.35c0-.64-.8.36 0 0Z"></path><path d="M269.58 208.07c.14.25.31 0 2.18-3.56.62-1.16.11-1.62.52-1.39s0-.22.86-1 .13-.34.23-1 .23-.74.26-.24c0 .27.09.34.17.2.29-.49 1.08-.81.45-.82s.29.12.65-1.08c.29-1 2.42-3.45 2-3.68s.22.44 1.37-1.8.93-1 1.27-1.55c.12-.22 0-.34-.28-.4s-.44-.09.13-.23c1.47-.37 7.39-10.82 7.49-12.11-.8.36 0-.64 0 0 .79-.36-.07-.69.52-.93a5.55 5.55 0 0 0 1.46-2.84c-.55 1.35-.89 2-1.62 1.62-.42-.24.33-.37 0-.56s.18-2.39-.69-1c0 0-3.34 5.19-2.92 5.43s-1.06.93-.58.93-.06.74-.21.46.06.19-2.35 3.24c-2.83 3.59-1.25 2.92-2 3.18s-1.78 1.87-1.6 2.19a.25.25 0 0 1-.17.4c-.77.3-2.25 3.71-3 4-.27.1-.29.18-.08.31s.19.17 0 .19c-.48 0-1.93 3.17-2.71 3.9-.33.31-.4.47-.2.47.47 0-1.64 1.7-1.42 2.9.15.81-.11-.71-1.71 2.53-.68 1.36-1.53.44 1.89 2.41-.01-.24.02-.3.09-.17Zm10.6-21.56s.36.36.33.41c.7 1.27-.51-.02-.33-.41Z"></path><path d="M287.25 176.64c.34.19-.41.32 0 .56.73.42 1.07-.27 1.62-1.62.09-1.11-1-1.24-1.86-.46.37 1.46-.09 1.33.24 1.52Zm1.44-1.29c0 .52-.2 1-.25.55s-.32-.54-.92-.55 1.54-.64 1.17 0ZM276.06 211.88c-.14.06-.13 0 0 .09a.14.14 0 0 1 0-.09Z"></path><path d="M278.27 212.46c-.26 0-.29-.11-.09-.35.38-.46-.2-1.08-.2-.5s-.15-.81-.94-.74-.66 1-.14.49c.3-.3.62 0-.84.52 0 .11-.18 0 2.14 1 .08-.44.45-.42.07-.42ZM288.43 216.13c.41.77 2.17-3.15 1.93-3.15-.46 0 .55-.37.67-.9s1.15-.22.61-.55c-.24-.15-.2-.21.22-.37s.44-.18.12-.19c-.86 0 1.06-.13 1.56-3 .21-1.24.26.24 1.67-2.56 1.21-2.4 1.55-2.65 1.58-3.38 0-.43.06-.5.18-.27s.32-.06.77-1 3.21-4.23 2.62-4.22c-.15 0-.07-.17.18-.4s.37-.4 0-.39c-.74 0 .58-.06.44-.77-.07-.36-.06-.39.08-.13s.2.17.25-.12c.11-.66-1.11-.57-.13-.68s3.4-4.51 3.15-4.66.62.81 2.24-4c-2.61 3.56-3.41 2.15-3.32 1.62s-.41-.51-.54-.63c-2.76 5.57-11.15 18.77-9.86 18.78.08 0-5.18 7.14-4.6 7.14.18 0 .2 0 0 .13-1.79.89-.82 2.7-1.26 1.84-.25-.5-.47.4-1.41 1.57l2.53 1c.3-.52.05-1.2.32-.71Zm9-19.53c.26.16.22.33-.2.32-.6 0 .39-.57.24-.32Zm-2 7.36c.42.26-.07.52-.23.2-.29-.57.28-.25.24-.16ZM303.74 185.05c-.49.25-.23.71-.56.51-.06 0 0-.11-.16.23.74.05 1.11-.93.72-.74ZM303.64 184.13c.12-.22.25-.46.37-.72-.22-.34-.33.44-.37.72Z"></path><path d="M303 186.43a.49.49 0 0 1 .35.52c-.1.56.7 1 1.27.63 3-1.79 2.45-5.56 2.09-3.93-.22 1 .37-1.65-1.6-1.27-1.34.27 1.12-.06.68.67-.1.17-.26.19-.33 0-.18-.36-1-.12-1.12.32-.05.21-.15.24-.23.07s-.51 1.14-.92 2c.31.33.14-.23.6-.47s0 .79-.72.74c-.3.61-.39.62-.07.72Zm2.48-2.87c.28.17 0 .67-.2.32-.35-.57.18-.37.15-.32ZM296.25 219.65c-.53 0-.06.14.47.33-.17-.19-.34-.33-.47-.33ZM310.36 217.6c-1.09-.56.76.33 1.68-1.19.81-1.33 0-.68 0-1.23 0-.15.12-.19.25-.07s.41-.06.85-.79 3.4-3.61 3.07-4 .78-.29.88-1.07c.2-1.54.93-.45.79-1.52-.05-.35 0-.44.1-.23.24.46.85-.59.7-1.21-.23-.93.17.54 2-2.81 5.79-10.78 2.76-6.64 3.58-8 .26-.44.68.57.28-.59-.45.82-1 2-1.31 1.61s-.27-.17-.32.11-.13.32-.22.15c-.27-.52-.19.87-.79.5s-.63-1.18-.33-2.39c-2.11 1.87-3.51 9.73-10.31 16.87-.46.48-.51.63-.23.62s.27 0 0 .16c-1.47.74-.86 2.12-1.21 1.91s-2.42 3.32-2.23 3.69.08.27-.11.16c-.37-.22-.74.5-.44.5a13.77 13.77 0 0 0-1.45 3.6c-.14.82-.87.48 2.32 1.39 4.16-7.77 2.95-5.91 2.45-6.17Zm11.34-20.3c.12.08.17.69-.14.51s.22-.64.14-.51Z"></path><path d="M321.87 197.25c.6.37.52-1 .79-.5.09.17.17.12.22-.15s.15-.32.32-.11.86-.79 1.31-1.61c-.47-1.38-1.51-.89-.75-.43.56.34-.51.37-.44.67s-.73-.14-.35-.43-.54-1.1-.77-.71c-.09.15-.06.27.07.27.41 0 .15.27-.4.41s-.76 2.13 0 2.59ZM186.18 160.36c.28.17 0 .48.39 0-.51-.36-.91-.31-.39 0ZM173.41 152.73c-1.82 3-3.57 5.88-5 8.37a20.52 20.52 0 0 0 2.62 2.11c.19-.32 2.6-4.35 5.27-8.84Zm-2.7 6.31c-.26.26-.38.24-.5-.08-.2-.54-.19-.56.36-.4.03-.05.52.1.14.44Zm2.11-1.66c0 1-1 .28-.43 0 .13-.07.12-.22 0-.32-.57-.4.61-.01.43.32Zm1.12-3.1c.15 0 .33.32.3.37.17.67-.55-.3-.3-.37Z"></path><path d="M182.34 168.05c-.4 0-.08-.49.17-.34s3.71-5.06 2.76-5.06c-.42 0 1.84-2.6.83-1.79-.65.52-.85-1.32-1-1s1.25 1.63.2 1.91c-.64.16-1.2-.4-.75-.76.17-.13.18-.23 0-.23-.4 0 .17-1.55 0-1.65-.31.42-.54.15-.35-.2l-.3-.18c-1.62 1.17-.5 2.29-1.1 1.93-.08 0-.09.23 0 .63.16.91.25-.67-1.59 2.65-2.49 4.5-2.81 3.16.54 4.83.1-.11 1.25-.74.59-.74Zm-1.91-1.59c-.38-.23.69-1.15.45-.74.12.28-.23.88-.45.74Z"></path><path d="m186.16 160.1-1.53-.89c-.7 1.64.26 1.51-.13 1.82s.11.92.75.76c1.05-.28-.43-1.52-.2-1.91s.32 1.84 1.28.74c-.01-.36-.77-.48-.17-.52ZM203 169.8a.65.65 0 0 0 .06.4c.2.37-.39.62-.27.82.86-1.02.76-.88.21-1.22ZM218.92 179c-.08 0-.07-.09-.13.18.04-.06.09-.11.13-.18ZM237.73 191.41v.08-.08ZM238 191.9c.21.14 1.2-.47.4-.35 0-.05-.86.08-.4.35ZM237.91 190.2c.1-.21.14-.15 0-.22a.94.94 0 0 0 0 .22ZM260.88 203.49c.29.17 0 .48.4 0-.47-.29-.95-.34-.4 0ZM190.6 172.49c-.2-.11-.18-.18 0-.19a9 9 0 0 0 2-3.3c-.11-.4 1.17-.79.51-.79s.34-.06.81-1.38 1-1 .88-1.75c-2.64-1.52-2.91-2.16-3.17 0 0 .31-.15.39-.38.26s-.79.44-.79 1.08c0 .41-1.43 2.4-1.21 2.52.45.27-1.4 1.57-1.93 2.7 3.57 1.78 2.59 1.43 3.22 1.19q.35-.18.06-.34Z"></path><path d="M203.44 170.19c.08.18.09.15.06-.08ZM201 174.39c.3.17 1.12-1.09.91-1.22s1.16-1.62.81-2.15c-1.39 1.52-2.19 1-1.86 1.46q.2.26-.06.15c-.73-.35.22-4.19.66-3.07.28.72.58-.24.39-.32a.94.94 0 0 1-.51-.36c-.68-.4-3.46 4.67-3.29 5 .27.56-.09-.54-1 1.08-.81 1.4-.49 1.21 2.4 2.65 2.08-2.99 1.28-3.4 1.55-3.22Z"></path><path d="M203 170.2a.65.65 0 0 1-.06-.4c-2.52-1.46-1.34-.66-1.08-.56s-.11 1-.39.32c-.44-1.12-1.39 2.72-.66 3.07q.25.1.06-.15c-.36-.45.41.13 1.86-1.46-.1-.2.49-.45.27-.82ZM203.37 170c.08.2 0 .18.13.08ZM209 180.84c-.4-.24.72 0 1-1.69.11-.61.25-1 .32-.82.18.33 1.56-2.26 1.41-2.64s.13.18.66-.46c-2.69-1.55-2-.82-2.27-1.09-.54-.5-3.54 5.83-3.45 5.88.33.2-.39.22-.77.82l2.55 1.27a3.35 3.35 0 0 0 .55-1.27ZM220.22 179.76c-.23.6-1.7.65-1.43-.57a68.76 68.76 0 0 0-3.64 6.26l2.92 1.45c.65-.92 2.25-4.15 3.36-6.44Z"></path><path d="M219.8 180.12c1.07-.14-.16-.7-.88-1.11-.39.52-.24 1.26.88 1.11ZM228.6 187.47c-.18-.44.19.18.67-.47s.85-1 1-1.45c-2.72-1.57-1.38-2.37-5.85 4.5l2.42 1.21c.94-1.67 1.88-3.49 1.76-3.79ZM240.35 191.38c-1.85 2.58-3 1.42-2.65.11-.46-.65-1.07.76-.79.77s.11.43-.25.35.11-.12-1.26 2.45l3.12 1.33c1.81-3.27 3.15-4.24 1.83-5.01Z"></path><path d="M237.73 191.41a1.85 1.85 0 0 1 .3-.57c.27-.36-.42-1.18-.3.57Z"></path><path d="M238 190.84c-1.1 1.47.17 3.54 2.32.54-3.74-2.17-1.89-1.08-2.32-.54Zm.34.71c.8-.12-.19.49-.4.35-.4-.27.46-.4.43-.35ZM248.11 195.86l-2.22 3.65 3.09 1.3c2.48-4.16 2.71-2.88-.87-4.95Zm.53 1.55c.15 0 .34.32.3.37.17.67-.54-.3-.3-.37ZM260.8 204c-.64.52-.84-1.32-1-1s1.24 1.63.2 1.91c-.64.16-1.21-.4-.76-.76.17-.13.19-.23 0-.23-.4 0 .17-1.55 0-1.65-.3.42-.53.15-.34-.2l-.31-.18c-1.62 1.17-.49 2.29-1.09 1.93-.08 0-.09.18 0 .52l2.58 1.07c-.01-.06 1.58-2.11.72-1.41Z"></path><path d="M259.2 204.16c-.45.36.12.92.76.76 1-.28-.44-1.52-.2-1.91s.4 1.5 1 1c.23-.18.33-.35.08-.5s-.33-.24 0-.26l-1.54-.89c-.66 1.64.29 1.49-.1 1.8ZM266.93 206.73c-.28.19-.43.18-.58 1.3l2.71 1.1c.81-1 .94-.62-2.13-2.4Z"></path><path fill="#ef9657" d="M172.09 164c-2.73 9.57-4.17 27.32-1.23 41.6 1.69 8.18-13.52 24.79-14.89 27s.55 4.65 4.37 5.74a92 92 0 0 0 10.93 1.91 203.17 203.17 0 0 0 14.34 25c6.36 9.22 11.07 14.62 27.19 19.53s23.2 5.05 23.2 5.05L258.15 380s26.59-24.55 45.07-43c22.13-22.13 39.89-44.8 38.52-50.26-8.19-7.93-13.11-21.86-18-33.33s-11.2-28.69-11.2-28.69-47.78-17.06-73.83-31.55A400.21 400.21 0 0 0 172.09 164Z"></path><path d="M192.33 206c0 2.7-1 4.08-3 4.08s-3-1.38-3-4.08 1-4.09 3-4.09 3 1.41 3 4.09Z"></path><g style="mix-blend-mode:multiply" opacity=".34"><ellipse cx="215.97" cy="226.65" fill="#f49b87" rx="16.45" ry="11.23" transform="rotate(-89.48 215.968 226.648)"></ellipse></g><path fill="none" stroke="#010101" stroke-linecap="round" stroke-linejoin="round" stroke-width="6.12" d="M172.5 186.15c6.35-4.51 18.85-6.14 26.84-5.12"></path><path fill="#153745" d="m237.45 214.84 15.16-2.84 1.85-10.89c-5.7-2.66-11.09-5.35-15.78-8-1.39-.78-2.78-1.53-4.17-2.28 2.05 8.22 2.94 24.01 2.94 24.01Z"></path><path fill="none" stroke="#c5513d" stroke-linecap="round" stroke-linejoin="round" stroke-width="1.36" d="M254.46 214.43c.82-4.72 3.48-10 4.71-11.07M287 215c-.21 4.3-2.26 16.39-9.84 21.31s-14.55 1.43-16.19-1"></path><path fill="none" stroke="#c5513d" stroke-linecap="round" stroke-linejoin="round" stroke-width="3.4" d="M177.52 249.73c5.26 0 14-6.51 17.1-10"></path><path fill="#153745" d="M312.51 224.67s-10.17-3.63-23.69-9c.76 4.67 2.79 9.61 7 12.86s16.74 6.49 20.92 7.47c-2.41-6.35-4.23-11.33-4.23-11.33Z"></path><path fill="#fff" d="M276.2 222.82a8.5 8.5 0 0 0-13.66-10.12 8.22 8.22 0 0 0-1.14 7.6c-.11.12-.21.25-.31.38l-6.1 8.23a4.92 4.92 0 0 0 7.91 5.86l6.09-8.24c.1-.13.19-.27.28-.41a8.24 8.24 0 0 0 6.93-3.3Z"></path><path d="M263.61 101.29c.05 0-.11.09-.36.11s-.14 0 .34.24c2.1-2.63 9-13.44 7.78-13.86-.16 0-.11-.22 0-.34l-3.12.33c-8.08 13.95-6.25 12.09-4.64 13.52Zm5.24-10.7c.15 0 .33.32.3.37.16.68-.55-.3-.3-.37ZM272 87.37c-.4 0-.27 0-.27.17s.13.05.27-.17ZM253.26 95.68l3.74-6.3q-2.08.36-4.23.78c-2.95 4.84-3.2 3.38.49 5.52Z"></path><path d="M262.06 100.33c.05.07 0 .06 0-.11-.46-.23-.28-.12-.53.23.22.13.28-.51.53-.12ZM261.2 99.87c-.42.25-.37.17 0 .38.23-.44.94-.94 0-.38Z"></path><path d="M263.25 101.4c.25 0 .41-.07.36-.11-2.05-1.76-1.46-.64-1.53-.92s-.31-.16-.44.14c1.72.99 1.51.89 1.61.89ZM262.08 100.37c0 .07 0 .06 0 0ZM280.36 111.28c-.18-.43-.34-.37-.38-.18.48.28.41.25.38.18Z"></path><path d="M290.32 88.76c.22.13.19.17-.14.18s-.43.19-.5 1c-.11 1.39-.5 1.15-.32.82s-.25-.23-.58.19-.29.83.27.75c.87-.13 0-.11-1 1.08-.47.56-.53.72-.23.58s.35-.09.26.07c-.26.46-.27-.33-1.49 1.81 0 0-5.16 7.43-4.1 6.89.55-.28.16.32-.14.33s-1.88 2.56-1.63 2.71.13.2 0 .28c-.39.22.27.29.08.61s-.35-1-1.1.58-.35 2.23-.83 2.24 0 .8-.42 1a.19.19 0 0 0-.09.11c1.46-.57 1.13-.82.84-.52-.53.52-.55-.44.14-.5s.93 1.4.93.74.58 0 .2.51c-.19.23-.17.34.09.34.48 0-.17-.1-.06.78 1.69-2.29.22-1.78 1-2.08.59-.22 0-.44.57-1.18.27-.39.27-.55 0-.59-.51-.06 0-.4.46-.13.69.39.65-2.23 1.15-1.94s2.79-4.23 2.66-4.92c-.06-.29 0-.51 0-.46s.16-.16.17-.44c0-1 3.3-3.19 2.41-3.16-.62 0 1-.72.47-1-.2-.12-.16-.17.14-.19s.35-.12.25-.3c-.24-.41.81-1.13.52-1.31s.18-1 .43-.9.38-1.08.9-1.74c.21-.25.25-.45.1-.44s1.4-2.74 2-3.31c.39-.36.62-.43-2.57-.75-.46 1.55-1.26 2.02-.84 2.26Zm-5.64 14.68c-.48-.28.22-.38.18-.33.39 0 .14.5-.18.33ZM298.74 118.06s-.48-.25-.2.32c.18.35.46-.14.2-.32Z"></path><path d="M309.58 96.86c-.2-.42-.69.31-.57.86.07.31 0 .37-.18.24-.48-.31 0 .86-.32.68s.17 1.1-.27.66-.87.34-1.09 1.27c-.34 1.41-1 .39-1.14 1.74-.05.38-.22.72-.36.72-.34 0-2.57 3.5-2.53 3.94s-1.43 1.48-1.11 1.88-1.11.61-.62.63-3.26 5-3 5.46c.09.18 0 .27-.27.28s-.32.06 0 .25c.51.33-.11.57-.24.31s-.77.6-.29.71.16.53-.13.35-.67.46-.42.62-.81 1.7-1.16 2.81c.14.08.55-.66.67-.44s.15.2.12-.14c-.08-1 1.58-1.87 1.92-1.86.14 0 .36.18.55.42.05-.19.09-.28.22-.15.36.34.74-.48 2-2.13s.39-1.1.75-1.67.57.19.62-.65.33-.22.25-.86.28-.47 1.18-1.37 0-1.82.52-1.16.26-.16.67-.87c.31-.53 0-1.45.28-.93s1.77-2.23 1.44-2.24 1.76-1.15 1-1.62c-.18-.11-.12-.18.19-.2s.41-.11.27-.31c-.26-.36 0-.77.19-.41.36.72.49-1.48.9-1.47.67 0 .85-2.38 2-3 .64-.34 1-2 1.25-2.22-.44-.47-.89-.91-1.37-1.35 0 .14-.06.29-.31.13-.42-.27-.22-.39.14-.29l-.64-.57c-1.42 1.64-.82 2.51-1.11 1.95ZM318.1 126.09c-.43-.82-3.11 4.91-3.16 5.2.24.13 0-.15.78-.61s.76.91 1.66.62a.8.8 0 0 1 .83.1c.85-1.26 1.17-1.34 1.1-2s.1-1 .29-.63c.11.21.16.2.16 0s1.63-1.36 2.52-2.9c-.26-2-.54-3.87-.83-5.74-3.8 6.48-3.32 6.02-3.35 5.96ZM280.85 87.09c-.56.21-1.77 1.88-1.6 2.19a.26.26 0 0 1-.16.41c-.78.29-2.26 3.7-3 4-.27.11-.29.19-.07.31s.18.18 0 .2c-.47 0-1.93 3.16-2.71 3.89-.33.32-.4.48-.2.48.48 0-1.63 1.69-1.41 2.89.14.82-.11-.7-1.72 2.54-.67 1.35-1.52.44 1.89 2.41 0-.2 0-.27.07-.15s.32 0 2.19-3.56c.61-1.16.1-1.62.51-1.38s0-.23.87-1 .12-.34.22-1 .24-.74.27-.24c0 .26.08.34.17.19.28-.48 1.07-.8.44-.82s.29.13.66-1.07c.29-1 2.42-3.45 2-3.69s.22.44 1.38-1.79.92-1 1.26-1.56c.12-.21 0-.34-.28-.4s-.44-.08.14-.23.61.13 2.6-3.08c-4.87.1-2.73.17-3.52.46ZM278.38 110.06c-.17.06-.14 0 0 .12a.13.13 0 0 1 0-.12Z"></path><path d="M280 111.1c.1-.45.34.2.54.31-.11-.87.53-.78.06-.78-.26 0-.28-.11-.09-.34.38-.46-.2-1.08-.2-.51s-.15-.81-.93-.74-.67 1-.14.5c.29-.3.62-.05-.84.52-.07.14-.09.08 1.6 1.04ZM295.22 103.27c.07 0-5.19 7.14-4.61 7.14.18 0 .2.06.05.13-1.8.9-.82 2.7-1.26 1.84-.27-.53-.5.54-1.64 1.84-.93 1.07-.28 1.21 1.63 2.31 1.69-2 1.09-2.72 1.35-2.22.41.76 2.17-3.16 1.93-3.16-.46 0 .56-.36.68-.89s1.14-.23.6-.56c-.24-.14-.2-.21.22-.36s.44-.19.12-.19c-.85 0 1.06-.13 1.56-3 .22-1.23.26.24 1.68-2.56 1.21-2.4 1.54-2.65 1.57-3.38 0-.43.07-.49.18-.27s.33-.05.78-1 3.2-4.22 2.61-4.22c-.15 0-.07-.17.19-.39s.36-.4.05-.4c-.75 0 .58-.06.43-.76-.07-.37 0-.39.09-.14s.2.18.24-.11c.11-.66-1.1-.57-.12-.68.33 0 .83-.58 1.34-1.28-.86-.47-1.73-.91-2.61-1.31-3.48 6.07-8.04 13.61-7.06 13.62Zm4.56-8.49c.27.16.22.32-.19.32-.59-.01.35-.57.19-.32Zm-2 7.36c.41.25-.07.52-.24.19-.31-.57.25-.25.22-.19ZM297.23 121.06l1.21.7c1.29-2.67 1.47-2.54.68-3.51-.6 2.57-1.03.52-1.89 2.81Zm1.81-2c.17-.28.33-.33.29-.28.61.33-.73.92-.33.22Z"></path><path d="M298 119.88c1.13-.31 1.43-2 .58-2-.34 0-2 .91-1.92 1.86 0 .34 0 .38-.12.14s-.28.07-.59.48c2.55 1.43.55-.07 2.05-.48Zm.75-1.82c.29.18 0 .67-.2.32-.29-.57.23-.38.19-.32ZM313.32 110.52c.25 0 .26 0 0 .17-1.47.74-.87 2.11-1.21 1.9s-2.42 3.32-2.24 3.69.08.28-.11.16c-.36-.22-.74.51-.43.5a13.19 13.19 0 0 0-1.45 3.6 25.37 25.37 0 0 1-2.79 5.08l2.15 1.24c.09-.3.06-.89.23-.56.32.63 5.88-10.4 5.81-10.54s-.15-.16-.15 0-.22.17-.49 0c-1.08-.56.76.34 1.69-1.19.8-1.32 0-.67 0-1.22s.27.53 1.09-.86c.35-.59 3.4-3.62 3.07-4-.19-.24.16-.3.47-.49-1.86-6.61-.5-3.28-5.45 1.92-.42.47-.51.61-.19.6ZM318 132.92c.49.65.79-2.52-.19-.91-.81 1.28-.23.35.19.91Z"></path><path d="M318.21 131.4a.8.8 0 0 0-.83-.1c-.95.31-1.17-1.86-2.35 0 2.97 1.7 2.09 1.7 3.18.1ZM263.2 101.66c.28.17 0 .48.39 0-.51-.32-.91-.31-.39 0ZM196.08 125.83c.49.59.26-.17.67-.88.31-.52 0-1.44.28-.92s1.77-2.24 1.43-2.25 1.77-1.15 1-1.61c-.18-.12-.12-.19.19-.21s.41-.1.27-.3c-.26-.36 0-.77.19-.42.36.73.49-1.47.9-1.47.66 0 .84-2.38 2-3 .71-.38 1.06-2.41 1.33-2.24s1.1-.92.4-.64c-.35.14 4.89-6 3.32-5.25-.54.26.13-.3.29-1.05-7.74 4.29-4.92 3.4-5.73 4.29-2.11 2.34-1.36 3-1.64 2.5s-.69.31-.57.86c.07.32 0 .38-.18.24-.48-.3 0 .86-.32.69s.16 1.1-.27.66-.87.34-1.09 1.26c-.34 1.41-1 .39-1.14 1.75 0 .38-.22.71-.36.72a13.2 13.2 0 0 0-2.53 3.94c.06.54-1.43 1.47-1.11 1.87s-1.11.62-.62.63c.22 0-.18.71-.76 1.61 3.18 1 2.76 1.09 3.52.33.96-.94-.02-1.77.53-1.11Zm6.57-14.77c.37 0 .35.56-.06.3-.59-.36.1-.36.06-.3ZM216 108c-.13 0-.16-.12-.07-.27.24-.39 1.12.45.77.71s.41.65.35.43 1-.33.44-.67c-.76-.46.28-1 .76.43.28-.51.52-.9.59-.75s.64-.8.59-1.29c-.11-1.25-1.1 3.75 4.81-8.28q-2.53 1-5.1 2.08C213 111.08 216.6 108 216 108Zm2.5-4.49c.6.36-.14.49-.33.12-.32-.63.36-.19.32-.13ZM218.32 132c.32 0 .72-1.32 1.37-1.68.33-.18.4-.31.24-.41s-.09-.22.19-.37c.62-.34.7-1.73 1-1.54.46.28.8-2.18 1.59-2.29s.22-1.08 1.27-1.89c.86-.67.09-.68.73-1.32 1.65-1.65.61-1.74 1.88-3.49s.75-2.54 1.48-2.71c1.18-.27.66-2.45 1.12-2.16s.66-2.31 1.45-2.76 4.09-5.6 4-6.14c0-.29 0-.38.18-.28s1.85-2.19 1.21-1.9.14-.8.4-.64 1-1.16.73-1.31c-.5-.32 1.35 0 .72-1.77-.11-.3-.11-.49 0-.41 1.39 1.12.36-.43 4.12-6.34-1.54.4-3.09.82-4.65 1.27-2.38 4.36-7 11.91-7 12.7.06.61-.32-.08-.63.42s.36.54 0 .71-.81 1.59-.45 1.6c.18 0 .09.09-.19.19-.83.3-.49-.71-1.4.76s-.13 1.66-.54 1.45-.65.3-.24.31c.16 0 .06.12-.23.27-1 .51.12 1.4-.72 1.6-.24.06-.33.15-.21.22.35.22-3.48 5.71-3.17 6.33 0 .08-4.32 5.65-3.22 5.54.43 0 .43 0 0 .13-.66.24-.32.8-.54.39-.55-1-1.92 3.06-2.23 2.86-.16-.1-.21 0-.14.27.13.55-.26 1.18-.67 1.08a34.24 34.24 0 0 0-2 3.31c3.13 1.13 2.41 1.1 3.07.46 1.34-1.22 1.02-2.46 1.48-2.46ZM241.24 110.3c.2.5.19.51-.19.22-.69-.52-1.13 1.32-1 1.77.25.69-.07-.11-.45.1-.06 0-1.45 4-1.69 3.52s-.47.14-.22.3-.93 1.36-.85 2-.28-.06-.63.62.2.29-.42 1.28a1.94 1.94 0 0 0-.21.44c.45-.18.93-.19.23.09-1 .39.48.17.69-.17s.82.58 1 .23.81.28.29.72.63.83-.32 1.18c-.53.2 0 0-.16.49.59-.43 1.08-1 .69-1s-.14-.48.14-.31.14-1.06.81-1.23c.3-.07.32-.14.08-.28s-.25-.19.14-.2c.88 0 0-1.13.85-1.4.58-.2.09-.91.07-.37 0 .81-.41-.89.43-.74s2.28-4.4 5.89-10.45c.12-.22.13-.39 0-.39-.35 0 .13.16 6.78-11L250.42 94c-4.94 8.18-9.42 15.61-9.18 16.3Zm6.48-10c-.25.25-.37.23-.49-.08-.2-.55-.19-.56.36-.4.03 0 .52.18.13.53Zm2.11-1.67c0 1-1 .29-.42 0 .13-.07.12-.22 0-.32-.57-.31.59.04.42.37Zm1.13-3.1c.14 0 .33.32.3.38.16.71-.55-.25-.26-.33Z"></path><path d="M245.78 132.27c3.23-3.8 3.71-7.37 3.95-6.91s1.13-1.3 1.06-2.06c0-.37-.1-.46-.22-.26-.22.36-.4.06.11-.36.33-.27.37-.22.35.39s.07.51.7-.82c1.25-2.65 3.48-5.7 3.23-6.2-.11-.23-.08-.27.11-.15.37.22.75-.52.43-.52-.14 0-.16-.15-.06-.32.28-.47.75.14.47-.45-.14-.3-.11-.37.09-.25.42.26 3.15-4.13 2.8-4.12s-.2-.08.18-.3c.62-.38.75-.58.38-.58s-.09-.5.17-.34 3.71-5.07 2.76-5.07c-.5 0 1.08-1.35 1.06-2-1 1.11-1-1.18-1.28-.75s1.25 1.64.2 1.91c-.64.17-1.2-.39-.76-.75s-.58-.13.13-1.83c-.2-.11-.35.36-.5.08-.05-.09 0-.21.05-.34l-.3-.17c-1.62 1.17-.5 2.29-1.1 1.93-.08-.05-.09.22 0 .62.16.91.25-.67-1.59 2.65-3.59 6.51-3.68 5.48-3.43 5.94.36.69-.14-.38-1.56 2.38-1.2 2.34-2.8 4-2 4 .34 0 .11.53-.35.25-.63-.38-.14 1-.59 1.07-.29.06.23-.55 0-.48-.46.12 0 2-.66 1.62-.42-.25-.14-.11-1.16 1.78-1.15 2.12-.36 1.48-.64 1.93-.07.14-.19.12-.27 0s-.4 0-.32.34c.14.54-3.93 6.22-3.64 6.41s-.39-.29-1.44 1.36c-.9 1.41-.32 1.25-1 2.32-1.81 2.84-.24 2.57-1.06 3.09a63.07 63.07 0 0 0-3.45 5.41l2.89 1.16a59.8 59.8 0 0 1 3.24-5c1.54-3.16.63-3.78 3.02-6.61ZM257.9 107c.14.28-.23.88-.45.75-.39-.21.69-1.13.45-.75Z"></path><path d="m263.18 101.4-1.54-.89c-.69 1.64.27 1.51-.13 1.83s.12.92.76.75c1.05-.27-.44-1.51-.2-1.91s.31 1.85 1.28.75c-.01-.37-.77-.48-.17-.53ZM185.7 124.71c-.85 0 1.06-.13 1.56-3 0-.22 4.37-5.39-3.24 2.64 2.45.65 1.98.37 1.68.36ZM205.77 130.15c.8-1.33 0-.68 0-1.23 0-.15.11-.19.25-.07s.41-.06.84-.79 3.4-3.61 3.07-4 .78-.29.88-1.07c.2-1.54.93-.44.79-1.52-.05-.35 0-.44.1-.23.24.46.85-.59.7-1.21-.23-.93.17.54 2-2.81 5.78-10.78 2.76-6.64 3.57-8 .26-.43.68.55.29-.59-.46.82-1.05 2-1.32 1.61s-.26-.17-.32.11-.13.32-.22.15c-.26-.52-.19.87-.79.5s-.63-1.18-.32-2.39c-2.11 1.87-3.51 9.73-10.31 16.87-.46.48-.52.63-.23.62s.26 0 0 .16c-1.47.74-.86 2.12-1.2 1.91-.16-.1-.82.83-1.39 1.78 2.74.92 2.94 1.29 3.61.2Zm9.65-19.15c.12.08.17.69-.13.51s.21-.6.13-.51Z"></path><path d="M217.48 108.19c.56.34-.51.37-.44.67s-.72-.14-.35-.43-.53-1.1-.77-.71c-.09.15-.06.28.07.27.73 0-.52.42-.72.61-.31 1.21-.24 2.05.32 2.39s.53-1 .79-.5c.09.17.17.12.22-.15s.16-.32.32-.11.86-.79 1.32-1.61c-.48-1.38-1.52-.89-.76-.43ZM235.81 125.69c2.42-3.71 1.43-2.34.74-2.17-.41.1-.63.07-.53-.09s-.34-.7-.63-.53c-.12.07-.1 0 0-.11.33-.33-.54-.56-.14-.76s.11-.84.34-1.48c-1.36.54-5.77 9.18-5.75 9.09-.2-.39-1.33.72-1.22 1.19.17.68-1.27 3.54-3.47 7.41 5.85 2.22.94 2.36 10.66-12.55ZM229.86 129.64c0 .08 0 0 0 0Z"></path><path d="M237.53 122.6c.45-.16.48-.23.24-.53a.44.44 0 0 1 .08-.65c.52-.44-.13-1-.29-.72s-.78-.65-1-.23a1.74 1.74 0 0 1-1 .39c-.11.59 0 1-.25 1.17s.47.43.14.76c-.12.13-.14.18 0 .11.29-.17.8.25.63.53s.5.28 1.35-.34c.12-.45-.43-.29.1-.49ZM235.61 120.55c-.11.32-.13.23.23.09.7-.28.22-.27-.23-.09ZM280 111.1a.58.58 0 0 0 .06.4c.2.38-.4.62-.27.82.9-1.01.77-.89.21-1.22ZM295.94 120.31c-.08 0-.07-.09-.14.18ZM315 133.21c.21.13 1.2-.47.39-.35.03-.06-.84.08-.39.35ZM314.74 132.72a.19.19 0 0 1 0 .07s.01.01 0-.07ZM314.93 131.5c.1-.21.14-.14 0-.21a.77.77 0 0 0 0 .21ZM255.94 132.22c.61 0 .88.17.92.55s.28 0 .26-.55c.37-.64-1.8-.01-1.18 0Z"></path><path d="M268.65 106.35c0 .31-.15.38-.38.25s-.79.44-.79 1.09c0 .4-1.43 2.39-1.22 2.52.54.31-2.1 2-2.06 3.26a.27.27 0 0 1-.28.29c-.53 0-.72.64-.22.72.87.15-.47 0-1 1.08s-1 .69-1 1.55-1 1.48-.64 1.48 0 .65-.2.39-.69 0-.39.21-.07.79-.35.63-.81.66-.39.9.38.93.19.58c-.71-1.27-3.64 4.74-3.45 5.37.25.83-.88 1.71-.94 2.86 0 .95-.53.78-.2 1s-.17.34.11 1.49c.83-.76 1.9-.66 1.88.4 0 .13.52-1.4 1.32-3 .09-.18 0-.29-.22-.29s-.22 0 .13-.17c.92-.33.59-2.12 1.12-1.81.25.15 1.05-1.16.65-1.16s-.15-.42.2-.35 2.28-2.84 2-3a3.37 3.37 0 0 1 .57-1.28c1-1.73.18-2.31.65-1.79s1.5-1.8 1.36-1.88c-.45-.27 1.67-2.12 1.36-2.3s.53-1.09 1.06-1.29c.23-.09.25-.19.06-.31s-.19-.17 0-.19a9.05 9.05 0 0 0 2-3.3c-.11-.4 1.16-.79.5-.79s.35-.06.82-1.37 1-1 .88-1.75c-2.61-1.53-2.87-2.17-3.13-.04Zm-8.91 20.12c-.64 0 .32-.56.18-.31.27.15.23.31-.18.31ZM257.93 149.32c-.28 0 1.39-2.74 2-3.3s-.06-.35.05-1c.05-.32.13-.34.32-.1s.25.2.27-.25c0-.91.27.21.89-1.32s1.54-1.62 1.27-1.77.5-1 .66-1.87c.07-.41.19-.53.41-.41s.37 0 .61-.81c.43-1.36 1.72-1.89 1.18-2.2-.35-.2.26-.08.65-.5.8-.86 1-1.16.76-1.29s-.11-.18.19-.3c.62-.23 2.13-3.05 2.11-3.93 0-.21.08-.21.25 0 .51.63.47-1.45.77-.93.17.31.52-.14.06-.41-.7-.4.75-.19.73-.82a6.34 6.34 0 0 1 1.51-2.52c.15-.08.18-.4.06-.7-.21-.53-.21-.53.1-.17s.37.26.62-.29c.47-1.06-.05-2.34.33-1.43s.68-.7.67-1 0-.3.15-.1c.31.57 1.08-1.4.5-1.39-.16 0 0-.15.34-.33.73-.38 2.79-3.84 2.57-4.31-.09-.19-.06-.25.08-.17.3.17 1.12-1.09.9-1.21s1.17-1.62.82-2.16c-1.39 1.52-2.19 1.06-1.86 1.47.13.17.11.22-.06.14-.73-.34.22-4.19.66-3.06.28.71.58-.25.38-.32a.91.91 0 0 1-.5-.37c-.68-.39-3.47 4.67-3.29 5 .27.55-.09-.55-1 1.08s.07.89-.19 1.32-1.14-.2-.79.45c.12.24.1.31-.07.21s-1.25 1.38-.81 1.37c.1 0-3.66 5.15-3.3 6 .15.34.12.43-.19.44s-.28 0-.05-.18 0-.61-1 1.22c-.58 1-.7 1.4-.46 1.48s.19.17.05.25c-.41.23-.42-.51-.72 0s.4.52 0 .76c-.25.14-3.25 4.58-2.69 4.58.81 0-1.49.43-1.29 1.74 0 .31 0 .38-.09.18s-.21-.12-.3.2c-.22.76.39.2-.1 1.1s-.74-.1-.8.16c-.57 2.25-1.67 3.08-1.7 3.89s-1 .7-1 1.57-.77 1.1-1.15 2.16c-.56 1.55-1.41 2-1 2.28.22.13.19.16-.14.18s-.43.19-.5 1c-.11 1.4-.5 1.15-.32.83.33-.57-.77.07-.82.67 3.85 1.67 1.88 1.2 3.18-.41.16-.21.24-.4.09-.4Zm8.37-14.5c.17-.34.3-.27.27-.22.07.26-.57.83-.27.22ZM280.45 111.5c.08.17.1.14.07-.09Z"></path><path d="M280.38 111.33c.09.21.06.18.14.08ZM280 111.5a.58.58 0 0 1-.06-.4c-2.52-1.45-1.34-.65-1.09-.55s-.1 1-.38.32c-.44-1.13-1.39 2.72-.66 3.06.17.08.19 0 .06-.14-.36-.45.41.12 1.86-1.47-.09-.2.51-.44.27-.82ZM273.85 140.43c0-.05-.49-.25-.19.32.18.35.48-.15.19-.32Z"></path><path d="M287.12 115.44c-.54-.5-3.54 5.83-3.46 5.88.43.26-.89.22-1 1.5-.05.9-.58 0-.67 1.32-.1 1.48-3.38 3.94-3.12 4.43s-1.15 1.74-.49 1.73c.4 0 .08.48-.16.34s-1.73 2.23-1.28 2.23c.18 0 .14.06-.1.15-.56.22-1.38 1.55-.95 1.55s-.42.18-.68.69-1.2.89-.76.88-1.18 1.52-.42 1.71c.34.09.31.12-.14.2s-.53.19-.47.52.05.36-.09.1-.23-.18-.36.26c-.33 1.06-.6 1.25-.51 1.43s.18.14.22-.07c.1-.44.94-.68 1.13-.32.07.14.22.12.33-.05.44-.73-2-.4-.69-.67 2-.38 1.39 2.28 1.61 1.27.27-1.22.45.59 0 1.42-.52 1.08 1.3-1.56.85-1.83-.26-.16-.24-.22.09-.3.65-.16.86-.68.31-.8-.39-.09-.38-.1.07-.16s.75-.48 1.74-2.16c1.65-2.79 1.74-1.72 1.52-2.2-.29-.63.33.12.82-1.24.92-2.57 2-3.68 1.93-4.34-.07-.42 0-.51.3-.51s.34-.05.16-.28-.11-.3.1-.33c.41-.06 1.82-2.6 1.44-2.6-.19 0-.78-.92-.21-.57s1.87-2.39 1.72-2.48c-.4-.24.72 0 1-1.69.1-.61.25-1 .32-.82.17.34 1.56-2.26 1.4-2.63s.14.17.67-.47c-2.59-1.53-1.88-.82-2.17-1.09Zm-5.21 14.68s-.3.27-.06-.2.42-.09.06.2ZM272.07 141c-1.14 2.07-.23 1.41 0 .09Z"></path><path d="m271.19 143.19.26-.53c-.25-.01-.45.34-.26.53ZM281.85 129.92c-.24.47.07.18.06.2.36-.29.23-.77-.06-.2ZM277.72 157.94c.71-.38 1.06-2.41 1.34-2.24s1.09-.92.39-.64c-.35.13 4.89-6 3.32-5.25-.55.27.19-.34.31-1.12s.19.34 1.28-1.42c5.63-9.06 4.62-8.42 5.07-8.42s.33-.06.15-.29-.16-.26.07-.14a.18.18 0 0 0 .3-.16c0-.78 3.23-5.27 2.67-5.28-.13 0 .09-.47.5-1.07 1.07-1.55.53-1.95.89-1.73.72.46.61-2.17.79-1.75s2.28-3.85 3.64-6.67l-1.21-.7c-.23.61-1.7.65-1.43-.57-2.15 3-8.26 14.91-8.11 15.89.1.6.09.61-.17.28s-.39-.16-1.13.94c-1.17 1.75-1.91 2.64-1.77 3 .23.6-.17-.91-1.26 1.94-.26.67-.46.75.11 1.11 1.18.75-1.18-.54-1.8 2.06-.1.43-.29 0-.66.54-.2.32-.12 1.43-2.71 4.87-1.47 1.94-.45 1.35-1 1.91-2.12 2.34-1.37 3-1.64 2.5s-.7.31-.58.86c.08.32 0 .38-.18.24-.47-.3 0 .86-.32.69s.17 1.1-.26.66c-.27-.26-.7.16-1 .86l2.89 1.47c.41-.72.79-1.97 1.51-2.37Zm7.52-17.89c.07 0 .36 1.62 0 .62-.31-.84.04-.67 0-.62Zm-5.05 9.13c.33 0-.09.68-.24.38s.27-.43.24-.38Zm-2.83 5c.36 0 .34.56-.07.3-.58-.36.1-.34.07-.29Z"></path><path d="M296.82 121.42c1.06-.14-.16-.69-.88-1.11-.39.52-.24 1.26.88 1.11ZM282.47 143.84c0-.06.68 0 .18-.33-.29-.17-.58.33-.18.33ZM290.3 151.53c.54-.14.81-.41.39-.41-.12 0-.15-.12-.06-.27.23-.39 1.11.45.77.71s.4.65.35.43 1-.33.43-.67c-.75-.46.29-.95.76.43.28-.51.52-.9.6-.75s.63-.8.58-1.29c0-.31 0-.35.13-.13.54 1 7.55-14.31 7.65-14.13s4-6.09 3.72-6.68c-.18-.43.19.19.67-.47 1.25-1.71 1.57-1.1-1.17-2.68-.05.08-17.51 26.59-14.82 25.91Zm7.07-12.62c.13 0 .46.17.42.22.32.4-.68-.13-.42-.22Zm-4.17 7.72c.6.36-.15.49-.34.12-.3-.6.37-.18.34-.12ZM314.74 132.72a2.18 2.18 0 0 1 .31-.58c.26-.35-.42-1.14-.31.58Z"></path><path d="M297.43 168.86c.79-.11.21-1.08 1.26-1.89.87-.67.1-.68.73-1.32 1.65-1.65.61-1.74 1.88-3.49s.76-2.54 1.48-2.71c1.18-.27.66-2.45 1.13-2.16s.65-2.31 1.44-2.76 4.09-5.6 4-6.14c0-.29 0-.38.17-.28s1.86-2.19 1.22-1.9.14-.8.39-.64 1-1.16.73-1.31c-.5-.32 1.36 0 .72-1.77-.11-.3-.11-.49 0-.41.59.48.81.44 1-.19 2.48-6.76 5.51-8.18 3.74-9.2-1.85 2.57-3 1.41-2.65.1-.46-.65-1.07.77-.8.77s.11.44-.24.35c-.07 0-.14-.06-.24.1.19 1.06-8.43 14.63-8.33 15.7.06.61-.31-.08-.63.42s.37.54 0 .71-.81 1.59-.45 1.6c.17 0 .08.09-.19.19-.84.3-.49-.71-1.41.76s-.13 1.66-.53 1.45-.66.3-.25.31c.17 0 .06.12-.23.27-1 .51.12 1.4-.72 1.6-.24.06-.33.15-.21.22.36.22-3.47 5.71-3.17 6.33 0 .08-4.32 5.65-3.21 5.54.42 0 .43 0 0 .13-1.05.38-.06.67 2 1.72.42-.55.76-1.96 1.37-2.1Z"></path><path d="M293.3 169.5c.32.17.33.2.29.13a.22.22 0 0 0-.29-.13ZM315.05 132.14c-1.1 1.48.17 3.55 2.32.55-3.77-2.18-1.92-1.09-2.32-.55Zm.33.72c.81-.12-.18.48-.39.35-.44-.27.43-.41.39-.35ZM316 153.43c.2.5.19.51-.2.22-.69-.52-1.13 1.32-1 1.77.25.69-.06-.11-.45.1-.06 0-1.45 4-1.69 3.51s-.47.15-.21.31-.94 1.36-.86 2-.28-.06-.62.62.19.29-.43 1.28a2.49 2.49 0 0 0-.21.44c.45-.18.93-.19.23.09-1 .39.49.17.69-.17s.82.58 1 .23.81.28.3.72c-.68.58.63.83-.32 1.18-.53.2 0 0-.17.49.59-.43 1.08-1 .7-1s-.15-.48.13-.31.15-1.06.81-1.23c.3-.07.32-.14.09-.28s-.25-.19.13-.2c.88 0 0-1.13.85-1.4.58-.2.09-.91.08-.37 0 .81-.42-.89.42-.74s2.28-4.4 5.89-10.45c.13-.22.13-.39 0-.39-.45 0 0 .3 3.62-5.71-.11-.65-.21-1.32-.31-2-.18.5-.83-.09-.38-.34.13-.07.12-.22 0-.32-.37-.26.05-.17.31 0-.13-.83-.25-1.68-.37-2.53-4.49 7.42-8.34 13.84-8.03 14.48Zm6.29-10.43c0-.05.52.09.14.48s-.38.23-.5-.08c-.2-.55-.18-.56.36-.4ZM325.93 160.74c.34 0 .12.53-.34.25-.64-.38-.15 1-.6 1.07-.29.06.23-.56-.05-.48-.46.12 0 2-.66 1.62-.42-.25-.14-.11-1.16 1.78-1.15 2.12-.36 1.48-.63 1.93-.08.14-.2.12-.27 0s-.41 0-.32.34c.13.54-3.94 6.22-3.64 6.41s-.4-.29-1.45 1.36c-.9 1.41-.32 1.25-1 2.32-1.36 2.14-.81 2.51-.8 2.79 5.43 2.5.9.69 5.48-4.7 3.22-3.8 3.71-7.37 3.94-6.91s1.13-1.3 1.07-2.06c0-.37-.11-.46-.23-.27-.22.37-.4.07.11-.35.33-.27.37-.22.35.39s.07.51.7-.82c2.61-5.5 2.83-2.4 1.24-8.24-1.16 2.09-2.53 3.58-1.74 3.57ZM255.32 136.22c.05-.64-.8.36 0 0Z"></path><path d="M255.32 136.22c-.8.36.05-.64 0 0 .8-.36-.08-.69.53-.93a5.62 5.62 0 0 0 1.46-2.84c-.55 1.35-.9 2-1.63 1.62-.41-.24.33-.37 0-.56s.1-.19-.24-1.52c-.45.42-3.77 5.76-3.37 6s-1.07.93-.58.93-.06.74-.21.46.06.19-2.35 3.24c-2.83 3.59-1.26 2.92-2 3.18a2.61 2.61 0 0 0-.84.76l2.72 1.14c.73-.92 6.4-9.87 6.51-11.48Zm-6.71 7.16s.35.36.32.41c.71 1.27-.55-.02-.32-.41Z"></path><path d="M255.44 132c.37 1.46-.1 1.32.24 1.52s-.41.32 0 .56c.73.42 1.08-.27 1.63-1.62.08-1.12-1.02-1.25-1.87-.46Zm1.42.78c0-.38-.31-.54-.92-.55s1.55-.64 1.18 0c.02.51-.21 1.01-.26.54ZM272.07 141c.12-.22.24-.46.37-.72-.22-.34-.33.44-.37.72ZM272.17 141.92c-.5.25-.23.71-.56.51-.06 0 0-.11-.16.23.74.05 1.1-.93.72-.74Z"></path><path d="M269 153c.35-.31.36-.4 0-.39-.74 0 .58-.06.44-.77-.08-.36-.06-.39.08-.13s.2.18.25-.12c.1-.66-1.11-.57-.13-.68s3.4-4.51 3.15-4.66.59.88 2.24-4.05c-2.62 3.56-3.42 2.15-3.32 1.62.58-3.26-3.66 5-7 10.87l2.59 1.21c2.58-3.53.82-2.14 1.7-2.9Zm-3.27.79c-.64 0 .35-.57.2-.32.23.16.19.33-.23.32Z"></path><path d="M275.09 140.52c-.22 1 .36-1.65-1.61-1.27-1.33.27 1.13-.06.69.67-.11.17-.26.19-.33.05-.19-.36-1-.12-1.13.32s-.19.11-.27 0a11.87 11.87 0 0 0-.83 2.15c.33.2.06-.26.56-.51s-.27 1-.6.78c-.14-.09-.11-.06-.38.49.13.12.61.22.54.63s.58 2.11 3.32-1.62c.57-1.74.25-2.67.04-1.69Zm-1.43.23c-.3-.57.23-.37.19-.32.29.17-.01.67-.19.32ZM286.31 164.57c0-.35 0-.44.1-.23.25.46.86-.59.71-1.21-.23-.93.16.54 2-2.81 5.79-10.78 2.76-6.64 3.57-8 .26-.43.68.55.29-.59-.46.82-1.05 2-1.32 1.61s-.26-.17-.31.11-.14.32-.22.15c-.27-.52-.19.87-.79.5s-.63-1.18-.33-2.39c-1.51 1.33-4.2 8.61-4.26 8.6-.24 0-1.33 1.7-2.65 3.69.88.49 1.75 1 2.63 1.44.27-.55.7 0 .58-.87Zm3.81-10.4c.13.08.17.69-.13.51s.21-.68.13-.51Z"></path><path d="M292.18 151.32c.56.34-.51.37-.43.67s-.73-.15-.35-.43-.54-1.1-.77-.71c-.09.15-.06.27.06.27.73 0-.52.43-.72.61-.3 1.21-.24 2.05.33 2.39s.52-1 .79-.5c.08.17.17.12.22-.15s.15-.32.31-.11.86-.79 1.32-1.61c-.47-1.38-1.51-.89-.76-.43ZM312.07 166.22c-.85.62-1.48.56-1.35.34s-.33-.7-.63-.53c-.11.07-.1 0 0-.11.33-.33-.54-.56-.14-.76s.07-.72.34-1.48c-1.2.48-5.76 9.16-5.74 9.09-.2-.39-1.34.72-1.22 1.19.2.84-1.14.06 2.88 2 .79-2.17 5.35-8.47 5.86-9.74ZM304.57 172.77c0 .08 0 0 0 0Z"></path><path d="M310 165.16c-.4.2.47.43.14.76-.12.13-.13.18 0 .11.3-.17.8.25.63.53s.12.19.53.09c.66-.16 1.09-.73.82-.73s-.1-.09.17-.19c.45-.16.48-.23.23-.53a.44.44 0 0 1 .09-.65c.51-.44-.13-1-.3-.72s-.77-.65-1-.23a1.74 1.74 0 0 1-1 .39c-.2.59-.05 1.01-.31 1.17ZM310.54 163.77c.88-.36-.2-.29-.3.14ZM330.65 175.35c.6 0 .87.17.91.55s.34.1.19-.81c-.38-.09-1.59.25-1.1.26Z"></path><path d="M330 173.63c.36.21-.17.34.12 1.49 1.64-1.52 2 1.7.83-4.31a4.65 4.65 0 0 0-.74 1.85c-.02.95-.51.78-.21.97ZM332.78 187.92c0-.76.1-.93-.39-.16ZM330 179.35c0-.64-.8.36 0 0Z"></path><path d="M330.39 177.2c-.42-.24.33-.37 0-.56s.1-.31-.21-1.41c-.13-.46-3.76 5.67-3.4 5.88s-1.06.93-.58.93-.06.74-.21.46 0 .05-1.35 1.92l2.31 1c2.44-4.05 3.05-5.58 3.09-6.08-.8.36 0-.64 0 0 .79-.36-.07-.69.52-.93a5.34 5.34 0 0 0 1.36-2.34c-.13-.76-.33 1.83-1.53 1.13Z"></path><path d="M330.15 175.12c.36 1.46-.1 1.33.23 1.52s-.41.32 0 .56c.88.52 1.53-1 1.43-1.68 0 .45-.21.8-.26.38s-.31-.54-.91-.55.72-.39 1.1-.26c-.11-.78-1.06-.47-1.59.03Z"></path><path d="M268.8 284.5c3.69 9.83-2.46 23.36-7 44.26s6.56 45.89 4.92 62.28 6.56 54.1 6.56 54.1l-44.26-59.42 10.66-81.14Z" style="mix-blend-mode:multiply" fill="#404da0" opacity=".17"></path><path fill="#f09e64" d="M147 283.13c.44-6.59 11.74-11.2 27-9.56s24 2.73 35.52 11.75S227 311 227 311s.55-14.21 9-21.31 21.58-15 32.51-8.47c5.78 3.47-4.37 14.75-9 20.49s-9.56 19.4-9 30.33 4.09 28.13 1.64 42.34 8.74 40.7 15.84 49.72 99 144 99 144 23.09-11.32 61.68-22.13c41-11.47 63.1-11.47 63.1-11.47s16.6 39.75-7.37 103.67c-18.58 49.55-70.08 82.37-114.33 75s-84.83-47.94-116.79-96.5S177 455 172.09 441.45s-15.84-16.8-19.67-31.56a143.56 143.56 0 0 1-4.37-26.22s-12.84 4.37-18.58-6.29-4.37-18-.82-24 7.11-7.92 7.11-7.92a13.71 13.71 0 0 1 3.24-13.7c6-6.28 11.21-7.1 11.21-7.1s-4.1-9.56 3-16.12 20.76-1.91 26.23 0 14.75 10.38 14.75 10.38-8.2-17.21-15.3-19.67-17.76-3-24.86-5.46-7.35-6.56-7.03-10.66Z"></path><path fill="none" stroke="#c5513d" stroke-linecap="round" stroke-linejoin="round" stroke-width="1.36" d="M259.78 279.86c-4.37 4.91-12 9.56-9.28 15.84a13.27 13.27 0 0 0 7.92 7.65M227 311a84 84 0 0 1 4.92 20.76M194.22 318.92a47.44 47.44 0 0 1 9.29 11.2M135.76 345.42c7.37-2.46 14.2-4.64 20.49-.82M148.05 383.67l.55-10.66M139.31 365.09c3.28 3.28 12.84 11.75 22.95 16.67M150.24 324.66c9.83-2.46 15-1.64 20.76 0M147.5 284.5c12.57 1.91 27.87-1.64 29-9.83"></path><path fill="none" stroke="#010101" stroke-linecap="round" stroke-linejoin="round" stroke-width="1.36" d="M309.37 425.88c2.46 17.21 25 34 25 34"></path><path fill="#f09e64" d="M71.28 551.68S-10.47 439.6-10.47 425.47s6.76-29.47 6.15-51.64-.62-28.89 2.46-38.72 9.22-19.67-1.23-21.52S-20.92 324-24 330.81s-11.68 44.25-11.68 44.25l-67-9.83s-19 47.94-1.23 95.89 25.82 94 70.07 141.37 73.78 55.32 114.34 55.94 65.77-16 65.77-16-8-16.6-34.42-48-40.57-42.75-40.57-42.75Z"></path></g></g></svg>