<svg xmlns="http://www.w3.org/2000/svg" viewBox="0 0 300 300" id="original-product-tag"><defs><radialGradient id="a" cx="150" cy="146.186" r="83.782" gradientUnits="userSpaceOnUse"><stop offset="0" stop-color="#0687b1"></stop><stop offset="1" stop-color="#384597"></stop></radialGradient></defs><g style="isolation:isolate"><g data-name="Ñëîé 1"><path fill="#231f20" d="M252.66361,151.8293l-31.377-54.3467a3.96969,3.96969,0,0,0-3.4382-1.9851H189.233L153.46589,59.7304a4.90164,4.90164,0,0,0-6.9318,0L110.767,95.4975H82.15159a3.96969,3.96969,0,0,0-3.4382,1.9851l-31.377,54.3467a3.96938,3.96938,0,0,0,0,3.97l31.377,54.3467a3.96981,3.96981,0,0,0,3.4382,1.985H110.767l35.76708,35.7672a4.90164,4.90164,0,0,0,6.9318,0L189.233,212.131h28.6154a3.96981,3.96981,0,0,0,3.4382-1.985l31.377-54.3467A3.96938,3.96938,0,0,0,252.66361,151.8293Z"></path><path fill="#2b3990" d="M252.66361,144.2007l-31.377-54.3467a3.96981,3.96981,0,0,0-3.4382-1.985H189.233L153.46589,52.1018a4.90164,4.90164,0,0,0-6.9318,0L110.767,87.869H82.15159a3.96981,3.96981,0,0,0-3.4382,1.985l-31.377,54.3467a3.96938,3.96938,0,0,0,0,3.97l31.377,54.3467a3.96969,3.96969,0,0,0,3.4382,1.9851H110.767l35.76708,35.7671a4.90164,4.90164,0,0,0,6.9318,0L189.233,204.5025h28.6154a3.96969,3.96969,0,0,0,3.4382-1.9851l31.377-54.3467A3.96938,3.96938,0,0,0,252.66361,144.2007Z"></path><path fill="none" stroke="#fff" stroke-miterlimit="10" stroke-width="1.017" d="M111.81949,199.4166H84.26369a2.543,2.543,0,0,1-2.2022-1.2714l-29.2647-50.6883a2.54293,2.54293,0,0,1,0-2.5428l29.2647-50.6883a2.54283,2.54283,0,0,1,2.2022-1.2714h27.5558a2.5429,2.5429,0,0,0,1.7981-.7448L148.202,57.6264a2.54277,2.54277,0,0,1,3.596,0l34.58438,34.5832a2.5429,2.5429,0,0,0,1.7981.7448h27.55582a2.54283,2.54283,0,0,1,2.2022,1.2714l29.2647,50.6895a2.54293,2.54293,0,0,1,0,2.5428l-29.2647,50.6871a2.543,2.543,0,0,1-2.2022,1.2714H188.18049a2.5429,2.5429,0,0,0-1.7981.7448l-34.5843,34.5843a2.54283,2.54283,0,0,1-3.5962,0l-34.5843-34.5843A2.5429,2.5429,0,0,0,111.81949,199.4166Z"></path><polyline fill="none" stroke="#fff" stroke-linecap="round" stroke-linejoin="round" stroke-width="1.017" points="87.074 194.331 85.731 194.331 85.059 193.168"></polyline><line x1="82.414" x2="59.93" y1="188.586" y2="149.64" fill="none" stroke="#fff" stroke-dasharray="2.645 5.291" stroke-linecap="round" stroke-linejoin="round" stroke-width="1.017"></line><polyline fill="none" stroke="#fff" stroke-linecap="round" stroke-linejoin="round" stroke-width="1.017" points="58.607 147.349 57.936 146.185 58.607 145.022"></polyline><line x1="61.252" x2="83.737" y1="140.44" y2="101.494" fill="none" stroke="#fff" stroke-dasharray="2.645 5.291" stroke-linecap="round" stroke-linejoin="round" stroke-width="1.017"></line><polyline fill="none" stroke="#fff" stroke-linecap="round" stroke-linejoin="round" stroke-width="1.017" points="85.059 99.203 85.731 98.04 87.074 98.04"></polyline><path fill="none" stroke="#fff" stroke-dasharray="2.612 5.224" stroke-linecap="round" stroke-linejoin="round" stroke-width="1.017" d="M92.29789,98.0401h19.522a7.6781,7.6781,0,0,0,5.3937-2.235l29.9896-29.9873"></path><polyline fill="none" stroke="#fff" stroke-linecap="round" stroke-linejoin="round" stroke-width="1.017" points="149.05 63.971 150 63.021 150.95 63.971"></polyline><path fill="none" stroke="#fff" stroke-dasharray="2.612 5.224" stroke-linecap="round" stroke-linejoin="round" stroke-width="1.017" d="M154.64389,67.6646l28.1425,28.1405a7.6781,7.6781,0,0,0,5.3937,2.235h22.134"></path><polyline fill="none" stroke="#fff" stroke-linecap="round" stroke-linejoin="round" stroke-width="1.017" points="212.926 98.04 214.269 98.04 214.941 99.203"></polyline><line x1="217.586" x2="240.07" y1="103.785" y2="142.732" fill="none" stroke="#fff" stroke-dasharray="2.645 5.291" stroke-linecap="round" stroke-linejoin="round" stroke-width="1.017"></line><polyline fill="none" stroke="#fff" stroke-linecap="round" stroke-linejoin="round" stroke-width="1.017" points="241.393 145.024 242.064 146.187 241.393 147.35"></polyline><line x1="238.748" x2="216.263" y1="151.932" y2="190.877" fill="none" stroke="#fff" stroke-dasharray="2.645 5.291" stroke-linecap="round" stroke-linejoin="round" stroke-width="1.017"></line><polyline fill="none" stroke="#fff" stroke-linecap="round" stroke-linejoin="round" stroke-width="1.017" points="214.941 193.168 214.269 194.331 212.926 194.331"></polyline><path fill="none" stroke="#fff" stroke-dasharray="2.612 5.224" stroke-linecap="round" stroke-linejoin="round" stroke-width="1.017" d="M207.702,194.3309H188.18009a7.67843,7.67843,0,0,0-5.3937,2.2349l-29.9896,29.9886"></path><polyline fill="none" stroke="#fff" stroke-linecap="round" stroke-linejoin="round" stroke-width="1.017" points="150.95 228.401 150 229.351 149.05 228.401"></polyline><path fill="none" stroke="#fff" stroke-dasharray="2.612 5.224" stroke-linecap="round" stroke-linejoin="round" stroke-width="1.017" d="M145.35619,224.7074l-28.1426-28.1416a7.67843,7.67843,0,0,0-5.3937-2.2349H89.686"></path><path fill="url(#a)" d="M116.77619,192.5328a2.5429,2.5429,0,0,0-1.7981-.7448H88.66659a2.54292,2.54292,0,0,1-2.2022-1.2714l-24.8595-43.0597a2.54293,2.54293,0,0,1,0-2.5428l24.8595-43.0597a2.5428,2.5428,0,0,1,2.2022-1.2715H114.978a2.54288,2.54288,0,0,0,1.798-.7447l31.426-31.4234a2.54277,2.54277,0,0,1,3.596,0l31.426,31.4234a2.54275,2.54275,0,0,0,1.798.7447h26.3114a2.5428,2.5428,0,0,1,2.2022,1.2715l24.8595,43.0609a2.54293,2.54293,0,0,1,0,2.5428l-24.8594,43.0585a2.543,2.543,0,0,1-2.2022,1.2714H185.02189a2.5429,2.5429,0,0,0-1.7981.7448L151.798,223.9573a2.54277,2.54277,0,0,1-3.596,0Z" opacity=".75"></path><path fill="none" stroke="#f75a00" stroke-miterlimit="10" stroke-width="2.543" d="M252.66361,144.2007l-31.377-54.3467a3.96981,3.96981,0,0,0-3.4382-1.985H189.233L153.46589,52.1018a4.90164,4.90164,0,0,0-6.9318,0L110.767,87.869H82.15159a3.96981,3.96981,0,0,0-3.4382,1.985l-31.377,54.3467a3.96938,3.96938,0,0,0,0,3.97l31.377,54.3467a3.96969,3.96969,0,0,0,3.4382,1.9851H110.767l35.76708,35.7671a4.90164,4.90164,0,0,0,6.9318,0L189.233,204.5025h28.6154a3.96969,3.96969,0,0,0,3.4382-1.9851l31.377-54.3467A3.96938,3.96938,0,0,0,252.66361,144.2007Z"></path><g style="mix-blend-mode:multiply" opacity=".25"><path d="M97.94729 122.9112c-.5147.4141-5.0996 4.2627-5.0996 13.8633 0 8.8145 3.5996 13.0762 6.1699 13.0762 1.8428-.1651 4.9707-1.3652 6.3418-8.9385a26.38767 26.38767 0 00.3857-4.9658c0-6.5381-2.6992-8.9385-4.456-8.9385a3.76456 3.76456 0 00-3.2569 2.2344 2.7227 2.7227 0 01-1.8418-2.2754c0-2.5244 3.4698-3.5596 5.3125-3.5596 7.37012 0 10.3272 7.1592 10.3272 13.6153 0 6.6621-4.1572 15.8496-12.7696 15.8496-9.5117 0-12.5107-8.4834-12.5107-15.9326 0-10.3038 7.626-14.9385 10.24022-15.1045C97.64649 121.8351 97.90429 122.2491 97.94729 122.9112zM128.93359 141.4093c-1.2012 0-2.8281-.3311-2.8281-2.8975 0-.4551-.043-1.2822-.2578-1.2822-.59968 0-3.47068 2.4824-5.4844 13.4492a4.76227 4.76227 0 01-1.9707.3721c-3.8985 0-3.9414-3.8487-3.9414-6.8692 0-1.6142.0859-3.3525.0859-4.7177a14.59691 14.59691 0 00-.5996-4.7178 4.92376 4.92376 0 013.1699-1.3242c1.3711 0 2.6133.8281 2.7422 2.8974.043 1.0752-.0859 3.8067.043 6.2071 2.6133-7.0352 5.9121-8.3184 7.4551-8.3184 4.1132 0 4.414 2.6904 4.414 5.918v.5381A5.355 5.355 0 01128.93359 141.4093zM136.39059 152.003c-2.6133 0-2.9551-1.7383-2.9551-5.3799 0-2.1103.17-4.0556.17-7.1181 0-.4131 0-1.6553-.043-2.6895a13.62186 13.62186 0 012.22852-.248c2.14258 0 3.29878.9931 3.29878 3.1445 0 3.9317-.25578 6.3731-.25578 11.5039A4.60319 4.60319 0 01136.39059 152.003zm3.1289-20.0293c0 1.4483-2.0996 3.1035-3.5136 3.1035-1.8008 0-2.4864-2.3584-2.4864-3.4345 0-1.4483 2.0567-1.9444 3.3848-1.9444A2.35311 2.35311 0 01139.51949 131.9737zM159.71679 155.9757c0 5.0478-5.2695 7.3242-9.9395 7.3242-4.3281 0-9.1699-2.0273-9.1699-6.249 0-2.4414 1.543-3.9727 3.59962-3.9727a4.65133 4.65133 0 013.17 1.1182 4.71644 4.71644 0 00-.98442 2.8545 3.76156 3.76156 0 007.498-.041c0-2.6895-2.5703-3.8487-5.3125-4.5108-4.7988-1.2002-5.4843-2.9375-5.4843-4.2617a2.92493 2.92493 0 011.3281-2.2353 6.68686 6.68686 0 01-3.043-5.586c0-2.3174 1.32812-4.3037 3.8145-4.3037.2558-2.4834 2.3125-3.6836 5.09762-3.6836a6.32874 6.32874 0 013.68558 1.0762c.7285-1.2412 1.9277-2.6074 3.6425-2.6074.9414 0 1.9278.7451 1.9278 2.5244 0 .166-.043.331-.043.5381a16.29315 16.29315 0 00-3.7715 1.4902 7.6279 7.6279 0 01.9434 3.8066 7.82476 7.82476 0 01-7.79878 7.9453 8.29963 8.29963 0 01-1.79892-.165.91853.91853 0 00-.2578.6621c0 .9102 1.3281 1.1582 2.9141 1.4483C152.73439 149.6856 159.71679 150.2647 159.71679 155.9757zm-12.5527-19.3672a2.68229 2.68229 0 011.2851 2.1934c0 .455-.1289.8691-.1719 1.3652a2.31053 2.31053 0 00-1.5429 2.3174 2.05928 2.05928 0 002.05662 2.0283c1.457 0 2.40038-2.1523 2.40038-4.3457 0-1.8613-.3437-4.5098-2.48438-4.5098A2.11059 2.11059 0 00147.16409 136.6085zM164.18749 152.003c-2.6133 0-2.9551-1.7383-2.9551-5.3799 0-2.1103.1699-4.0556.1699-7.1181 0-.4131 0-1.6553-.0429-2.6895a13.62162 13.62162 0 012.2285-.248c2.1426 0 3.2988.9931 3.2988 3.1445 0 3.9317-.2558 6.3731-.2558 11.5039A4.6034 4.6034 0 01164.18749 152.003zm3.1289-20.0293c0 1.4483-2.0996 3.1035-3.5137 3.1035-1.80068 0-2.4863-2.3584-2.4863-3.4345 0-1.4483 2.05662-1.9444 3.3848-1.9444A2.35312 2.35312 0 01167.31639 131.9737zM189.24409 150.0987a2.90093 2.90093 0 01-2.6562 1.6143c-2.0996 0-4.4141-2.0693-4.4141-6.4561 0-2.7304.1719-5.4619.1719-6.5381 0-.7031-.1289-.8691-.34368-.8691-.59972 0-3.72662 1.4902-6.68362 12.5801a3.58321 3.58321 0 01-1.7129.373c-3.3438 0-3.6426-2.6074-3.6426-5.4209 0-2.4834.2988-5.1728.2988-7.2832a12.6748 12.6748 0 00-.38468-3.3935 5.24253 5.24253 0 013.25578-1.3242c1.3711 0 2.5723.8271 2.5723 2.8964 0 1.0762-.2578 3.8077-.2578 6.2071 4.1992-7.2002 6.38472-7.6143 7.92572-7.6143 3.98438 0 4.45708 2.8145 4.45708 5.918 0 2.1933-.1289 3.1445-.1289 4.6348C187.70119 147.7403 188.30079 149.1886 189.24409 150.0987zM209.23829 149.7267a3.64422 3.64422 0 01-2.0996.6211c-2.6992 0-3.6426-2.8145-3.8574-4.5108-1.19928 3.1865-4.584 5.4619-7.3262 5.4619-3.1699 0-5.4844-2.4824-5.4844-5.8759 0-5.711 4.541-11.2559 10.4551-11.2559 3.2558 0 5.9551 2.4414 6.4258 4.2207a28.05418 28.05418 0 00-.3418 5.1728A11.57739 11.57739 0 00209.23829 149.7267zm-6.6426-11.835a1.5663 1.5663 0 00-1.4141-1.1592c-2.3125 0-5.2265 5.711-5.2265 8.4834 0 .8281.3008 1.8213.9433 1.8213C199.33979 147.0372 202.125 140.5401 202.59569 137.8917zM221.27341 149.4786c0 2.5654-2.4843 2.8965-3.2129 2.8965-5.3984 0-7.0703-3.7246-7.0703-13.5732 0-4.1387-.0429-10.9659-.2578-14.6905a9.63693 9.63693 0 011.5-.083c3.3418 0 4.4571 1.7793 4.4141 4.7588-.043 3.3106-.6856 10.3867-.3438 14.0283.3868 4.1387 1.2422 5.628 3.3418 5.628a5.22669 5.22669 0 001.5-.2061A6.73048 6.73048 0 01221.27341 149.4786z"></path></g><path fill="#fff" d="M96.85919 121.2791c-.5147.4141-5.0996 4.2627-5.0996 13.8633 0 8.8145 3.5996 13.0762 6.1699 13.0762 1.8428-.1651 4.9707-1.3653 6.3418-8.9385a26.38782 26.38782 0 00.38572-4.9658c0-6.5381-2.69922-8.9385-4.456-8.9385a3.76425 3.76425 0 00-3.25682 2.2344 2.72254 2.72254 0 01-1.8418-2.2754c0-2.5244 3.4697-3.5596 5.3125-3.5596 7.37012 0 10.32712 7.1592 10.32712 13.6152 0 6.6622-4.15722 15.8497-12.76952 15.8497-9.5117 0-12.5108-8.4834-12.5108-15.9327 0-10.3037 7.626-14.9384 10.24032-15.1045C96.55839 120.2029 96.81619 120.617 96.85919 121.2791zM127.84549 139.7772c-1.2012 0-2.8281-.3311-2.8281-2.8975 0-.4551-.043-1.2822-.2578-1.2822-.59958 0-3.4707 2.4824-5.4844 13.4492a4.76381 4.76381 0 01-1.9707.3721c-3.8984 0-3.9414-3.8487-3.9414-6.8692 0-1.6142.08592-3.3525.08592-4.7177a14.59693 14.59693 0 00-.59962-4.7178 4.92341 4.92341 0 013.1699-1.3242c1.3711 0 2.6133.8281 2.7422 2.8974.043 1.0752-.0859 3.8067.043 6.2071 2.6133-7.0352 5.9121-8.3184 7.4551-8.3184 4.1133 0 4.414 2.6904 4.414 5.918v.538A5.35429 5.35429 0 01127.84549 139.7772zM135.30259 150.3709c-2.6133 0-2.9551-1.7383-2.9551-5.3799 0-2.1103.1699-4.0556.1699-7.1181 0-.4131 0-1.6553-.043-2.6895a13.62284 13.62284 0 012.2285-.248c2.1426 0 3.2989.9931 3.2989 3.1445 0 3.9316-.2559 6.373-.2559 11.5039A4.60307 4.60307 0 01135.30259 150.3709zm3.1289-20.0293c0 1.4483-2.0997 3.1035-3.5137 3.1035-1.80078 0-2.4863-2.3584-2.4863-3.4345 0-1.4483 2.0566-1.9444 3.3847-1.9444A2.35309 2.35309 0 01138.43149 130.3416zM158.62869 154.3436c0 5.0478-5.2695 7.3242-9.9394 7.3242-4.3282 0-9.17-2.0274-9.17-6.249 0-2.4414 1.543-3.9727 3.59972-3.9727a4.65113 4.65113 0 013.16988 1.1182 4.71654 4.71654 0 00-.9844 2.8545 3.76162 3.76162 0 007.4981-.041c0-2.6895-2.5704-3.8487-5.3125-4.5108-4.7989-1.2002-5.4844-2.9375-5.4844-4.2617a2.92527 2.92527 0 011.3281-2.2354 6.68693 6.68693 0 01-3.043-5.5859c0-2.3174 1.32822-4.3037 3.8145-4.3037.2558-2.4834 2.3125-3.6836 5.0976-3.6836a6.32881 6.32881 0 013.6856 1.0762c.72852-1.2412 1.9277-2.6075 3.6426-2.6075.9414 0 1.9277.7452 1.9277 2.5245 0 .166-.043.331-.043.538a16.296 16.296 0 00-3.7715 1.4903 7.62811 7.62811 0 01.9434 3.8066 7.82476 7.82476 0 01-7.7988 7.9453 8.298 8.298 0 01-1.7988-.165.9182.9182 0 00-.2579.6621c0 .9102 1.3282 1.1582 2.9141 1.4482C151.64629 148.0535 158.62869 148.6326 158.62869 154.3436zM146.076 134.9764a2.68229 2.68229 0 011.28508 2.1933c0 .4551-.1289.8692-.1718 1.3653a2.31061 2.31061 0 00-1.543 2.3174 2.05927 2.05927 0 002.0566 2.0283c1.45712 0 2.4004-2.1524 2.4004-4.3457 0-1.8614-.3437-4.5098-2.48428-4.5098A2.1107 2.1107 0 00146.076 134.9764zM163.09939 150.3709c-2.6133 0-2.9551-1.7383-2.9551-5.3799 0-2.1103.17-4.0556.17-7.1181 0-.4131 0-1.6553-.043-2.6895a13.62162 13.62162 0 012.2285-.248c2.1426 0 3.2988.9931 3.2988 3.1445 0 3.9316-.2558 6.373-.2558 11.5039A4.60313 4.60313 0 01163.09939 150.3709zm3.1289-20.0293c0 1.4483-2.0996 3.1035-3.5136 3.1035-1.8008 0-2.4864-2.3584-2.4864-3.4345 0-1.4483 2.05672-1.9444 3.3848-1.9444A2.35307 2.35307 0 01166.22829 130.3416zM188.15609 148.4666a2.90109 2.90109 0 01-2.6563 1.6143c-2.0996 0-4.414-2.0694-4.414-6.4561 0-2.7304.1718-5.4619.1718-6.5381 0-.7031-.1289-.8691-.3437-.8691-.5996 0-3.7266 1.4902-6.6836 12.5801a3.58326 3.58326 0 01-1.7129.373c-3.3438 0-3.6426-2.6074-3.6426-5.4209 0-2.4834.2988-5.1728.2988-7.2832a12.66949 12.66949 0 00-.3847-3.3935 5.24321 5.24321 0 013.2558-1.3243c1.3711 0 2.57232.8272 2.57232 2.8965 0 1.0762-.25782 3.8076-.25782 6.2071 4.1992-7.2002 6.38482-7.6143 7.92582-7.6143 3.98428 0 4.457 2.8145 4.457 5.918 0 2.1933-.12892 3.1445-.12892 4.6347C186.61309 146.1082 187.21269 147.5565 188.15609 148.4666zM208.15019 148.0945a3.64326 3.64326 0 01-2.0996.6211c-2.6992 0-3.64258-2.8144-3.8574-4.5107-1.19918 3.1865-4.584 5.4619-7.32618 5.4619-3.16992 0-5.48442-2.4824-5.48442-5.876 0-5.7109 4.541-11.2558 10.4551-11.2558 3.2559 0 5.9551 2.4414 6.4258 4.2207a28.05418 28.05418 0 00-.3418 5.1728A11.57658 11.57658 0 00208.15019 148.0945zm-6.6426-11.8349a1.56618 1.56618 0 00-1.414-1.1592c-2.3125 0-5.22658 5.7109-5.22658 8.4834 0 .8281.30078 1.8213.94338 1.8213C198.25179 145.4051 201.03689 138.908 201.50759 136.2596zM220.18541 147.8465c0 2.5654-2.4844 2.8965-3.2129 2.8965-5.3985 0-7.07032-3.7246-7.07032-13.5733 0-4.1386-.043-10.9658-.2579-14.6904a9.638 9.638 0 011.5-.083c3.3418 0 4.4571 1.7793 4.4141 4.7588-.043 3.3105-.6855 10.3867-.3437 14.0283.3867 4.1387 1.2421 5.6279 3.3418 5.6279a5.22715 5.22715 0 001.5-.206A6.73915 6.73915 0 01220.18541 147.8465z"></path><g style="mix-blend-mode:multiply" opacity=".25"><polygon points="151.483 93.359 155.139 100.766 163.313 101.954 157.398 107.719 158.794 115.86 151.483 112.016 144.172 115.86 145.568 107.719 139.654 101.954 147.828 100.766 151.483 93.359"></polygon></g><polygon fill="#f75a00" points="150 91.133 153.655 98.54 161.829 99.728 155.914 105.494 157.311 113.635 150 109.791 142.688 113.635 144.085 105.494 138.17 99.728 146.344 98.54 150 91.133"></polygon><g style="mix-blend-mode:multiply" opacity=".25"><polygon points="150.755 98.239 152.615 102.009 156.776 102.614 153.765 105.548 154.476 109.692 150.755 107.736 147.033 109.692 147.744 105.548 144.733 102.614 148.894 102.009 150.755 98.239"></polygon></g><polygon fill="#fff" points="150 97.106 151.86 100.876 156.021 101.481 153.01 104.416 153.721 108.559 150 106.603 146.278 108.559 146.989 104.416 143.978 101.481 148.139 100.876 150 97.106"></polygon><g style="mix-blend-mode:multiply" opacity=".25"><polygon points="169.478 102.204 172.403 108.129 178.942 109.079 174.21 113.692 175.327 120.204 169.478 117.13 163.63 120.204 164.747 113.692 160.015 109.079 166.554 108.129 169.478 102.204"></polygon></g><polygon fill="#f75a00" points="168.291 100.423 171.216 106.349 177.755 107.299 173.023 111.911 174.14 118.424 168.291 115.349 162.443 118.424 163.56 111.911 158.828 107.299 165.367 106.349 168.291 100.423"></polygon><g style="mix-blend-mode:multiply" opacity=".25"><polygon points="168.896 106.108 170.384 109.124 173.713 109.607 171.304 111.955 171.873 115.27 168.896 113.705 165.919 115.27 166.487 111.955 164.079 109.607 167.407 109.124 168.896 106.108"></polygon></g><polygon fill="#fff" points="168.291 105.201 169.78 108.217 173.108 108.701 170.7 111.049 171.269 114.364 168.291 112.799 165.314 114.364 165.883 111.049 163.474 108.701 166.803 108.217 168.291 105.201"></polygon><g style="mix-blend-mode:multiply" opacity=".25"><polygon points="132.895 102.204 135.819 108.129 142.358 109.079 137.626 113.692 138.743 120.204 132.895 117.13 127.046 120.204 128.163 113.692 123.431 109.079 129.97 108.129 132.895 102.204"></polygon></g><polygon fill="#f75a00" points="131.708 100.423 134.632 106.349 141.171 107.299 136.439 111.911 137.556 118.424 131.708 115.349 125.859 118.424 126.976 111.911 122.244 107.299 128.783 106.349 131.708 100.423"></polygon><g style="mix-blend-mode:multiply" opacity=".25"><polygon points="132.312 106.108 133.8 109.124 137.129 109.607 134.72 111.955 135.289 115.27 132.312 113.705 129.335 115.27 129.903 111.955 127.495 109.607 130.823 109.124 132.312 106.108"></polygon></g><polygon fill="#fff" points="131.708 105.201 133.196 108.217 136.525 108.701 134.116 111.049 134.685 114.364 131.708 112.799 128.731 114.364 129.299 111.049 126.891 108.701 130.219 108.217 131.708 105.201"></polygon><line x1="80.599" x2="126.559" y1="157.916" y2="157.916" fill="none" stroke="#fff" stroke-linecap="round" stroke-linejoin="round" stroke-width=".636"></line><line x1="90.614" x2="136.574" y1="161.911" y2="161.911" fill="none" stroke="#fff" stroke-linecap="round" stroke-linejoin="round" stroke-width=".636"></line><line x1="219.401" x2="173.441" y1="157.916" y2="157.916" fill="none" stroke="#fff" stroke-linecap="round" stroke-linejoin="round" stroke-width=".636"></line><line x1="209.386" x2="163.426" y1="161.911" y2="161.911" fill="none" stroke="#fff" stroke-linecap="round" stroke-linejoin="round" stroke-width=".636"></line><g style="mix-blend-mode:multiply" opacity=".25"><circle cx="150.812" cy="181.933" r="14.601"></circle></g><circle cx="150" cy="180.715" r="14.601" fill="#f75a00"></circle><g style="mix-blend-mode:multiply" opacity=".25"><path d="M122.55789 176.9863c0 2.6016-2.4024 4.6543-5.5 4.6026l-2.3594-.0391v4.3037l-3.5937-.0605V172.0996l5.9531.0996C120.15549 172.251 122.55789 174.3838 122.55789 176.9863zm-3.5918-.0595a1.8315 1.8315 0 00-1.9082-1.793l-2.3594-.0391v3.5205l2.3594.0391A1.75935 1.75935 0 00118.96609 176.9268zM130.75909 176.1455v3.3252c-1.3907-.2187-3.3672.2373-3.3672 2.1738v4.4209l-3.3711-.0566v-9.7813l3.3711.0567v1.7412A3.34632 3.34632 0 01130.75909 176.1455zM131.43679 181.2432c0-2.9141 2.6504-5.1201 5.94922-5.0645 3.30268.0547 5.95308 2.3496 5.95308 5.2637 0 2.915-2.6504 5.1191-5.95308 5.0644C134.08719 186.4512 131.43679 184.1582 131.43679 181.2432zm8.53322.1425a2.41422 2.41422 0 00-2.584-2.3515 2.31845 2.31845 0 00-2.58012 2.2646 2.41267 2.41267 0 002.58012 2.3526A2.32157 2.32157 0 00139.97 181.3857zM156.77469 172.8643v13.6933l-3.3692-.0566v-.919a4.46447 4.46447 0 01-3.3457 1.1368 5.35 5.35 0 01-5.3672-5.254 5.13863 5.13863 0 015.3672-5.0742 4.60808 4.60808 0 013.3457 1.2491v-4.8321zm-3.3692 8.7461a2.458 2.458 0 00-2.6738-2.4317 2.36331 2.36331 0 00-2.6699 2.3428 2.45493 2.45493 0 002.6699 2.4307A2.363 2.363 0 00153.40549 181.6104zM169.87039 176.9951v9.7813l-3.3692-.0557v-.9189a4.04581 4.04581 0 01-3.2109 1.1386 3.99166 3.99166 0 01-4.1992-4.1191v-6.0059l3.3691.0557v5.5752a1.77443 1.77443 0 001.9532 1.8135 1.82467 1.82467 0 002.0878-1.9795v-5.3408zM171.78439 181.918c0-2.9141 2.5391-5.1211 5.9512-5.0645a6.11009 6.11009 0 015.0742 2.5889l-2.9414 1.4375a2.44292 2.44292 0 00-2.1797-1.1309 2.27361 2.27361 0 00-2.5351 2.2256 2.36557 2.36557 0 002.5351 2.3115 2.33051 2.33051 0 002.1797-1.0586l2.9414 1.5157a5.81947 5.81947 0 01-5.0742 2.4384C174.32349 187.125 171.78439 184.833 171.78439 181.918zM188.43089 180.124v3.4619c0 .8418.83012.9336 2.3125.8799v2.6602c-4.4023.3183-5.6836-.8574-5.6836-3.5967v-3.4619l-1.79678-.0303v-2.8174l1.79678.0303v-1.8584l3.3711-.8232v2.7382l2.3125.0381v2.8174z"></path></g><path fill="#fff" d="M121.85919 175.9383c0 2.6016-2.4024 4.6543-5.5 4.6025l-2.3594-.039v4.3037l-3.5937-.0606V171.0516l5.9531.0996C119.45679 171.2029 121.85919 173.3358 121.85919 175.9383zm-3.5918-.0596a1.83148 1.83148 0 00-1.9082-1.7929l-2.3594-.0391v3.5205l2.3594.0391A1.75942 1.75942 0 00118.26739 175.8787zM130.06039 175.0975v3.3252c-1.3907-.2188-3.3672.2373-3.3672 2.1738v4.4209l-3.3711-.0566v-9.7813l3.3711.0566v1.7413A3.346 3.346 0 01130.06039 175.0975zM130.73809 180.1951c0-2.914 2.6504-5.1201 5.9492-5.0644 3.3028.0547 5.9531 2.3496 5.9531 5.2637 0 2.915-2.6503 5.1191-5.9531 5.0644C133.38849 185.4031 130.73809 183.1102 130.73809 180.1951zm8.5332.1426a2.41423 2.41423 0 00-2.584-2.3516 2.31845 2.31845 0 00-2.5801 2.2647 2.41258 2.41258 0 002.5801 2.3525A2.32138 2.32138 0 00139.27129 180.3377zM156.076 171.8162v13.6934l-3.36922-.0567v-.9189a4.46429 4.46429 0 01-3.3457 1.1367 5.34975 5.34975 0 01-5.36708-5.2539 5.13853 5.13853 0 015.36708-5.0742 4.60828 4.60828 0 013.3457 1.249v-4.832zm-3.36922 8.7461a2.45791 2.45791 0 00-2.67378-2.4316 2.36331 2.36331 0 00-2.66992 2.3428 2.45492 2.45492 0 002.66992 2.4306A2.3629 2.3629 0 00152.70679 180.5623zM169.17169 175.9471v9.7812l-3.3691-.0556v-.919a4.04618 4.04618 0 01-3.211 1.1387 3.99167 3.99167 0 01-4.1992-4.1191v-6.0059l3.3691.0557v5.5752a1.77435 1.77435 0 001.9532 1.8134 1.82469 1.82469 0 002.0879-1.9795v-5.3408zM171.08579 180.8699c0-2.914 2.539-5.1211 5.9511-5.0644a6.11012 6.11012 0 015.0742 2.5889l-2.9414 1.4375a2.44247 2.44247 0 00-2.1796-1.1309 2.27366 2.27366 0 00-2.5352 2.2256 2.36561 2.36561 0 002.5352 2.3115 2.33066 2.33066 0 002.1796-1.0586l2.9414 1.5156a5.81957 5.81957 0 01-5.0742 2.4385C173.62479 186.077 171.08579 183.785 171.08579 180.8699zM187.73219 179.076v3.4619c0 .8418.8301.9336 2.3125.8799v2.6601c-4.4023.3184-5.6836-.8574-5.6836-3.5966v-3.4619l-1.7968-.0303v-2.8174l1.7968.0303v-1.8584l3.3711-.8233v2.7383l2.3125.0381v2.8174z"></path></g></g></svg>